<?xml version="1.0" encoding="UTF-8" standalone="no"?>
<!DOCTYPE svg PUBLIC "-//W3C//DTD SVG 1.1//EN"
 "http://www.w3.org/Graphics/SVG/1.1/DTD/svg11.dtd">
<!-- Generated by graphviz version 2.47.0 (20210316.0004)
 -->
<!-- Title: dependencies Pages: 1 -->
<svg width="504pt" height="284pt"
 viewBox="0.00 0.00 504.00 284.00" xmlns="http://www.w3.org/2000/svg" xmlns:xlink="http://www.w3.org/1999/xlink">
<g id="graph0" class="graph" transform="scale(1 1) rotate(0) translate(4 280)">
<title>dependencies</title>
<polygon fill="white" stroke="transparent" points="-4,4 -4,-280 500,-280 500,4 -4,4"/>
<text text-anchor="start" x="227.01" y="-42.4" font-family="Times-12" font-weight="bold" font-size="14.00">Legend</text>
<polygon fill="#ffffb3" stroke="transparent" points="14,-10 14,-30 34,-30 34,-10 14,-10"/>
<text text-anchor="start" x="37.63" y="-15.4" font-family="Times-12" font-size="14.00"> &#160;Declarations</text>
<polygon fill="#8dd3c7" stroke="transparent" points="127,-10 127,-30 147,-30 147,-10 127,-10"/>
<text text-anchor="start" x="150.73" y="-15.4" font-family="Times-12" font-size="14.00"> &#160;Module</text>
<polygon fill="#80b1d3" stroke="transparent" points="213,-10 213,-30 233,-30 233,-10 213,-10"/>
<text text-anchor="start" x="236.78" y="-15.4" font-family="Times-12" font-size="14.00"> &#160;Bootstrap</text>
<polygon fill="#fdb462" stroke="transparent" points="310,-10 310,-30 330,-30 330,-10 310,-10"/>
<text text-anchor="start" x="333.67" y="-15.4" font-family="Times-12" font-size="14.00"> &#160;Providers</text>
<polygon fill="#fb8072" stroke="transparent" points="406,-10 406,-30 426,-30 426,-10 406,-10"/>
<text text-anchor="start" x="429.73" y="-15.4" font-family="Times-12" font-size="14.00"> &#160;Exports</text>
<g id="clust1" class="cluster">
<title>cluster_HookModule</title>
<polygon fill="none" stroke="black" stroke-dasharray="1,5" points="171,-70 171,-268 325,-268 325,-70 171,-70"/>
</g>
<g id="clust6" class="cluster">
<title>cluster_HookModule_providers</title>
<polygon fill="none" stroke="black" points="179,-78 179,-130 317,-130 317,-78 179,-78"/>
</g>
<g id="clust4" class="cluster">
<title>cluster_HookModule_exports</title>
<polygon fill="none" stroke="black" points="194,-208 194,-260 302,-260 302,-208 194,-208"/>
</g>
<!-- HookService  -->
<g id="node1" class="node">
<title>HookService </title>
<polygon fill="#fb8072" stroke="black" points="294.09,-252 201.91,-252 201.91,-216 294.09,-216 294.09,-252"/>
<text text-anchor="middle" x="248" y="-229.8" font-family="Times,serif" font-size="14.00">HookService </text>
</g>
<!-- HookModule -->
<g id="node2" class="node">
<title>HookModule</title>
<polygon fill="#8dd3c7" stroke="black" points="293.16,-187 290.16,-191 269.16,-191 266.16,-187 202.84,-187 202.84,-151 293.16,-151 293.16,-187"/>
<text text-anchor="middle" x="248" y="-164.8" font-family="Times,serif" font-size="14.00">HookModule</text>
</g>
<!-- HookModule&#45;&gt;HookService  -->
<g id="edge1" class="edge">
<title>HookModule&#45;&gt;HookService </title>
<path fill="none" stroke="black" stroke-dasharray="5,2" d="M248,-187.11C248,-187.11 248,-205.99 248,-205.99"/>
<polygon fill="black" stroke="black" points="244.5,-205.99 248,-215.99 251.5,-205.99 244.5,-205.99"/>
</g>
<!-- HookService -->
<g id="node3" class="node">
<title>HookService</title>
<ellipse fill="#fdb462" stroke="black" cx="248" cy="-104" rx="61.4" ry="18"/>
<text text-anchor="middle" x="248" y="-99.8" font-family="Times,serif" font-size="14.00">HookService</text>
</g>
<!-- HookService&#45;&gt;HookModule -->
<g id="edge2" class="edge">
<title>HookService&#45;&gt;HookModule</title>
<path fill="none" stroke="black" d="M248,-122.11C248,-122.11 248,-140.99 248,-140.99"/>
<polygon fill="black" stroke="black" points="244.5,-140.99 248,-150.99 251.5,-140.99 244.5,-140.99"/>
</g>
</g>
</svg>
