<?xml version="1.0" encoding="UTF-8" standalone="no"?>
<!DOCTYPE svg PUBLIC "-//W3C//DTD SVG 1.1//EN"
 "http://www.w3.org/Graphics/SVG/1.1/DTD/svg11.dtd">
<!-- Generated by graphviz version 2.47.0 (20210316.0004)
 -->
<!-- Title: dependencies Pages: 1 -->
<svg width="504pt" height="284pt"
 viewBox="0.00 0.00 504.00 284.00" xmlns="http://www.w3.org/2000/svg" xmlns:xlink="http://www.w3.org/1999/xlink">
<g id="graph0" class="graph" transform="scale(1 1) rotate(0) translate(4 280)">
<title>dependencies</title>
<polygon fill="white" stroke="transparent" points="-4,4 -4,-280 500,-280 500,4 -4,4"/>
<text text-anchor="start" x="227.01" y="-42.4" font-family="Times-12" font-weight="bold" font-size="14.00">Legend</text>
<polygon fill="#ffffb3" stroke="transparent" points="14,-10 14,-30 34,-30 34,-10 14,-10"/>
<text text-anchor="start" x="37.63" y="-15.4" font-family="Times-12" font-size="14.00"> &#160;Declarations</text>
<polygon fill="#8dd3c7" stroke="transparent" points="127,-10 127,-30 147,-30 147,-10 127,-10"/>
<text text-anchor="start" x="150.73" y="-15.4" font-family="Times-12" font-size="14.00"> &#160;Module</text>
<polygon fill="#80b1d3" stroke="transparent" points="213,-10 213,-30 233,-30 233,-10 213,-10"/>
<text text-anchor="start" x="236.78" y="-15.4" font-family="Times-12" font-size="14.00"> &#160;Bootstrap</text>
<polygon fill="#fdb462" stroke="transparent" points="310,-10 310,-30 330,-30 330,-10 310,-10"/>
<text text-anchor="start" x="333.67" y="-15.4" font-family="Times-12" font-size="14.00"> &#160;Providers</text>
<polygon fill="#fb8072" stroke="transparent" points="406,-10 406,-30 426,-30 426,-10 406,-10"/>
<text text-anchor="start" x="429.73" y="-15.4" font-family="Times-12" font-size="14.00"> &#160;Exports</text>
<g id="clust1" class="cluster">
<title>cluster_HookModule</title>
<polygon fill="none" stroke="black" stroke-dasharray="1,5" points="116,-70 116,-268 380,-268 380,-70 116,-70"/>
</g>
<g id="clust3" class="cluster">
<title>cluster_HookModule_imports</title>
<polygon fill="none" stroke="black" points="270,-78 270,-130 372,-130 372,-78 270,-78"/>
</g>
<g id="clust4" class="cluster">
<title>cluster_HookModule_exports</title>
<polygon fill="none" stroke="black" points="201,-208 201,-260 309,-260 309,-208 201,-208"/>
</g>
<g id="clust6" class="cluster">
<title>cluster_HookModule_providers</title>
<polygon fill="none" stroke="black" points="124,-78 124,-130 262,-130 262,-78 124,-78"/>
</g>
<!-- MailModule -->
<g id="node1" class="node">
<title>MailModule</title>
<polygon fill="#8dd3c7" stroke="black" points="363.99,-122 360.99,-126 339.99,-126 336.99,-122 278.01,-122 278.01,-86 363.99,-86 363.99,-122"/>
<text text-anchor="middle" x="321" y="-99.8" font-family="Times,serif" font-size="14.00">MailModule</text>
</g>
<!-- HookModule -->
<g id="node2" class="node">
<title>HookModule</title>
<polygon fill="#8dd3c7" stroke="black" points="300.16,-187 297.16,-191 276.16,-191 273.16,-187 209.84,-187 209.84,-151 300.16,-151 300.16,-187"/>
<text text-anchor="middle" x="255" y="-164.8" font-family="Times,serif" font-size="14.00">HookModule</text>
</g>
<!-- MailModule&#45;&gt;HookModule -->
<g id="edge1" class="edge">
<title>MailModule&#45;&gt;HookModule</title>
<path fill="none" stroke="black" d="M289.17,-122.11C289.17,-122.11 289.17,-140.99 289.17,-140.99"/>
<polygon fill="black" stroke="black" points="285.67,-140.99 289.17,-150.99 292.67,-140.99 285.67,-140.99"/>
</g>
<!-- HookService  -->
<g id="node3" class="node">
<title>HookService </title>
<polygon fill="#fb8072" stroke="black" points="301.09,-252 208.91,-252 208.91,-216 301.09,-216 301.09,-252"/>
<text text-anchor="middle" x="255" y="-229.8" font-family="Times,serif" font-size="14.00">HookService </text>
</g>
<!-- HookModule&#45;&gt;HookService  -->
<g id="edge2" class="edge">
<title>HookModule&#45;&gt;HookService </title>
<path fill="none" stroke="black" stroke-dasharray="5,2" d="M255,-187.11C255,-187.11 255,-205.99 255,-205.99"/>
<polygon fill="black" stroke="black" points="251.5,-205.99 255,-215.99 258.5,-205.99 251.5,-205.99"/>
</g>
<!-- HookService -->
<g id="node4" class="node">
<title>HookService</title>
<ellipse fill="#fdb462" stroke="black" cx="193" cy="-104" rx="61.4" ry="18"/>
<text text-anchor="middle" x="193" y="-99.8" font-family="Times,serif" font-size="14.00">HookService</text>
</g>
<!-- HookService&#45;&gt;HookModule -->
<g id="edge3" class="edge">
<title>HookService&#45;&gt;HookModule</title>
<path fill="none" stroke="black" d="M232.06,-118.1C232.06,-118.1 232.06,-140.72 232.06,-140.72"/>
<polygon fill="black" stroke="black" points="228.56,-140.72 232.06,-150.72 235.56,-140.72 228.56,-140.72"/>
</g>
</g>
</svg>
