<?xml version="1.0" encoding="UTF-8" standalone="no"?>
<!DOCTYPE svg PUBLIC "-//W3C//DTD SVG 1.1//EN"
 "http://www.w3.org/Graphics/SVG/1.1/DTD/svg11.dtd">
<!-- Generated by graphviz version 2.47.0 (20210316.0004)
 -->
<!-- Title: dependencies Pages: 1 -->
<svg width="814pt" height="284pt"
 viewBox="0.00 0.00 814.00 284.00" xmlns="http://www.w3.org/2000/svg" xmlns:xlink="http://www.w3.org/1999/xlink">
<g id="graph0" class="graph" transform="scale(1 1) rotate(0) translate(4 280)">
<title>dependencies</title>
<polygon fill="white" stroke="transparent" points="-4,4 -4,-280 810,-280 810,4 -4,4"/>
<text text-anchor="start" x="382.01" y="-42.4" font-family="Times-12" font-weight="bold" font-size="14.00">Legend</text>
<polygon fill="#ffffb3" stroke="transparent" points="169,-10 169,-30 189,-30 189,-10 169,-10"/>
<text text-anchor="start" x="192.63" y="-15.4" font-family="Times-12" font-size="14.00"> &#160;Declarations</text>
<polygon fill="#8dd3c7" stroke="transparent" points="282,-10 282,-30 302,-30 302,-10 282,-10"/>
<text text-anchor="start" x="305.73" y="-15.4" font-family="Times-12" font-size="14.00"> &#160;Module</text>
<polygon fill="#80b1d3" stroke="transparent" points="368,-10 368,-30 388,-30 388,-10 368,-10"/>
<text text-anchor="start" x="391.78" y="-15.4" font-family="Times-12" font-size="14.00"> &#160;Bootstrap</text>
<polygon fill="#fdb462" stroke="transparent" points="465,-10 465,-30 485,-30 485,-10 465,-10"/>
<text text-anchor="start" x="488.67" y="-15.4" font-family="Times-12" font-size="14.00"> &#160;Providers</text>
<polygon fill="#fb8072" stroke="transparent" points="561,-10 561,-30 581,-30 581,-10 561,-10"/>
<text text-anchor="start" x="584.73" y="-15.4" font-family="Times-12" font-size="14.00"> &#160;Exports</text>
<g id="clust1" class="cluster">
<title>cluster_UniversityModule</title>
<polygon fill="none" stroke="black" stroke-dasharray="1,5" points="8,-70 8,-268 798,-268 798,-70 8,-70"/>
</g>
<g id="clust4" class="cluster">
<title>cluster_UniversityModule_exports</title>
<polygon fill="none" stroke="black" points="393,-208 393,-260 529,-260 529,-208 393,-208"/>
</g>
<g id="clust3" class="cluster">
<title>cluster_UniversityModule_imports</title>
<polygon fill="none" stroke="black" points="357,-78 357,-130 790,-130 790,-78 357,-78"/>
</g>
<g id="clust6" class="cluster">
<title>cluster_UniversityModule_providers</title>
<polygon fill="none" stroke="black" points="16,-78 16,-130 349,-130 349,-78 16,-78"/>
</g>
<!-- AuthModule -->
<g id="node1" class="node">
<title>AuthModule</title>
<polygon fill="#8dd3c7" stroke="black" points="781.55,-122 778.55,-126 757.55,-126 754.55,-122 694.45,-122 694.45,-86 781.55,-86 781.55,-122"/>
<text text-anchor="middle" x="738" y="-99.8" font-family="Times,serif" font-size="14.00">AuthModule</text>
</g>
<!-- UniversityModule -->
<g id="node5" class="node">
<title>UniversityModule</title>
<polygon fill="#8dd3c7" stroke="black" points="520.15,-187 517.15,-191 496.15,-191 493.15,-187 401.85,-187 401.85,-151 520.15,-151 520.15,-187"/>
<text text-anchor="middle" x="461" y="-164.8" font-family="Times,serif" font-size="14.00">UniversityModule</text>
</g>
<!-- AuthModule&#45;&gt;UniversityModule -->
<g id="edge1" class="edge">
<title>AuthModule&#45;&gt;UniversityModule</title>
<path fill="none" stroke="black" d="M738,-122.28C738,-143.32 738,-175 738,-175 738,-175 530.42,-175 530.42,-175"/>
<polygon fill="black" stroke="black" points="530.42,-171.5 520.42,-175 530.42,-178.5 530.42,-171.5"/>
</g>
<!-- DeviceModule -->
<g id="node2" class="node">
<title>DeviceModule</title>
<polygon fill="#8dd3c7" stroke="black" points="676.69,-122 673.69,-126 652.69,-126 649.69,-122 577.31,-122 577.31,-86 676.69,-86 676.69,-122"/>
<text text-anchor="middle" x="627" y="-99.8" font-family="Times,serif" font-size="14.00">DeviceModule</text>
</g>
<!-- DeviceModule&#45;&gt;UniversityModule -->
<g id="edge2" class="edge">
<title>DeviceModule&#45;&gt;UniversityModule</title>
<path fill="none" stroke="black" d="M627,-122.02C627,-139.37 627,-163 627,-163 627,-163 530.46,-163 530.46,-163"/>
<polygon fill="black" stroke="black" points="530.46,-159.5 520.46,-163 530.46,-166.5 530.46,-159.5"/>
</g>
<!-- HookModule -->
<g id="node3" class="node">
<title>HookModule</title>
<polygon fill="#8dd3c7" stroke="black" points="559.16,-122 556.16,-126 535.16,-126 532.16,-122 468.84,-122 468.84,-86 559.16,-86 559.16,-122"/>
<text text-anchor="middle" x="514" y="-99.8" font-family="Times,serif" font-size="14.00">HookModule</text>
</g>
<!-- HookModule&#45;&gt;UniversityModule -->
<g id="edge3" class="edge">
<title>HookModule&#45;&gt;UniversityModule</title>
<path fill="none" stroke="black" d="M494.5,-122.11C494.5,-122.11 494.5,-140.99 494.5,-140.99"/>
<polygon fill="black" stroke="black" points="491,-140.99 494.5,-150.99 498,-140.99 491,-140.99"/>
</g>
<!-- UserModule -->
<g id="node4" class="node">
<title>UserModule</title>
<polygon fill="#8dd3c7" stroke="black" points="450.98,-122 447.98,-126 426.98,-126 423.98,-122 365.02,-122 365.02,-86 450.98,-86 450.98,-122"/>
<text text-anchor="middle" x="408" y="-99.8" font-family="Times,serif" font-size="14.00">UserModule</text>
</g>
<!-- UserModule&#45;&gt;UniversityModule -->
<g id="edge4" class="edge">
<title>UserModule&#45;&gt;UniversityModule</title>
<path fill="none" stroke="black" d="M426.33,-122.11C426.33,-122.11 426.33,-140.99 426.33,-140.99"/>
<polygon fill="black" stroke="black" points="422.83,-140.99 426.33,-150.99 429.83,-140.99 422.83,-140.99"/>
</g>
<!-- StudentController  -->
<g id="node6" class="node">
<title>StudentController </title>
<polygon fill="#fb8072" stroke="black" points="520.82,-252 401.18,-252 401.18,-216 520.82,-216 520.82,-252"/>
<text text-anchor="middle" x="461" y="-229.8" font-family="Times,serif" font-size="14.00">StudentController </text>
</g>
<!-- UniversityModule&#45;&gt;StudentController  -->
<g id="edge5" class="edge">
<title>UniversityModule&#45;&gt;StudentController </title>
<path fill="none" stroke="black" stroke-dasharray="5,2" d="M461,-187.11C461,-187.11 461,-205.99 461,-205.99"/>
<polygon fill="black" stroke="black" points="457.5,-205.99 461,-215.99 464.5,-205.99 457.5,-205.99"/>
</g>
<!-- StudentController -->
<g id="node7" class="node">
<title>StudentController</title>
<ellipse fill="#fdb462" stroke="black" cx="261" cy="-104" rx="80.48" ry="18"/>
<text text-anchor="middle" x="261" y="-99.8" font-family="Times,serif" font-size="14.00">StudentController</text>
</g>
<!-- StudentController&#45;&gt;UniversityModule -->
<g id="edge6" class="edge">
<title>StudentController&#45;&gt;UniversityModule</title>
<path fill="none" stroke="black" d="M261,-122.02C261,-139.37 261,-163 261,-163 261,-163 391.81,-163 391.81,-163"/>
<polygon fill="black" stroke="black" points="391.81,-166.5 401.81,-163 391.81,-159.5 391.81,-166.5"/>
</g>
<!-- StudentService -->
<g id="node8" class="node">
<title>StudentService</title>
<ellipse fill="#fdb462" stroke="black" cx="93" cy="-104" rx="69.5" ry="18"/>
<text text-anchor="middle" x="93" y="-99.8" font-family="Times,serif" font-size="14.00">StudentService</text>
</g>
<!-- StudentService&#45;&gt;UniversityModule -->
<g id="edge7" class="edge">
<title>StudentService&#45;&gt;UniversityModule</title>
<path fill="none" stroke="black" d="M93,-122.28C93,-143.32 93,-175 93,-175 93,-175 391.47,-175 391.47,-175"/>
<polygon fill="black" stroke="black" points="391.47,-178.5 401.47,-175 391.47,-171.5 391.47,-178.5"/>
</g>
</g>
</svg>
