<?xml version="1.0" encoding="UTF-8" standalone="no"?>
<!DOCTYPE svg PUBLIC "-//W3C//DTD SVG 1.1//EN"
 "http://www.w3.org/Graphics/SVG/1.1/DTD/svg11.dtd">
<!-- Generated by graphviz version 2.47.0 (20210316.0004)
 -->
<!-- Title: dependencies Pages: 1 -->
<svg width="529pt" height="284pt"
 viewBox="0.00 0.00 529.00 284.00" xmlns="http://www.w3.org/2000/svg" xmlns:xlink="http://www.w3.org/1999/xlink">
<g id="graph0" class="graph" transform="scale(1 1) rotate(0) translate(4 280)">
<title>dependencies</title>
<polygon fill="white" stroke="transparent" points="-4,4 -4,-280 525,-280 525,4 -4,4"/>
<text text-anchor="start" x="239.51" y="-42.4" font-family="Times-12" font-weight="bold" font-size="14.00">Legend</text>
<polygon fill="#ffffb3" stroke="transparent" points="26.5,-10 26.5,-30 46.5,-30 46.5,-10 26.5,-10"/>
<text text-anchor="start" x="50.13" y="-15.4" font-family="Times-12" font-size="14.00"> &#160;Declarations</text>
<polygon fill="#8dd3c7" stroke="transparent" points="139.5,-10 139.5,-30 159.5,-30 159.5,-10 139.5,-10"/>
<text text-anchor="start" x="163.23" y="-15.4" font-family="Times-12" font-size="14.00"> &#160;Module</text>
<polygon fill="#80b1d3" stroke="transparent" points="225.5,-10 225.5,-30 245.5,-30 245.5,-10 225.5,-10"/>
<text text-anchor="start" x="249.28" y="-15.4" font-family="Times-12" font-size="14.00"> &#160;Bootstrap</text>
<polygon fill="#fdb462" stroke="transparent" points="322.5,-10 322.5,-30 342.5,-30 342.5,-10 322.5,-10"/>
<text text-anchor="start" x="346.17" y="-15.4" font-family="Times-12" font-size="14.00"> &#160;Providers</text>
<polygon fill="#fb8072" stroke="transparent" points="418.5,-10 418.5,-30 438.5,-30 438.5,-10 418.5,-10"/>
<text text-anchor="start" x="442.23" y="-15.4" font-family="Times-12" font-size="14.00"> &#160;Exports</text>
<g id="clust1" class="cluster">
<title>cluster_UniversityModule</title>
<polygon fill="none" stroke="black" stroke-dasharray="1,5" points="8,-70 8,-268 513,-268 513,-70 8,-70"/>
</g>
<g id="clust4" class="cluster">
<title>cluster_UniversityModule_exports</title>
<polygon fill="none" stroke="black" points="71,-208 71,-260 451,-260 451,-208 71,-208"/>
</g>
<g id="clust6" class="cluster">
<title>cluster_UniversityModule_providers</title>
<polygon fill="none" stroke="black" points="16,-78 16,-130 505,-130 505,-78 16,-78"/>
</g>
<!-- FacultyService  -->
<g id="node1" class="node">
<title>FacultyService </title>
<polygon fill="#fb8072" stroke="black" points="442.97,-252 339.03,-252 339.03,-216 442.97,-216 442.97,-252"/>
<text text-anchor="middle" x="391" y="-229.8" font-family="Times,serif" font-size="14.00">FacultyService </text>
</g>
<!-- StudentController  -->
<g id="node2" class="node">
<title>StudentController </title>
<polygon fill="#fb8072" stroke="black" points="320.82,-252 201.18,-252 201.18,-216 320.82,-216 320.82,-252"/>
<text text-anchor="middle" x="261" y="-229.8" font-family="Times,serif" font-size="14.00">StudentController </text>
</g>
<!-- StudentService  -->
<g id="node3" class="node">
<title>StudentService </title>
<polygon fill="#fb8072" stroke="black" points="183.26,-252 78.74,-252 78.74,-216 183.26,-216 183.26,-252"/>
<text text-anchor="middle" x="131" y="-229.8" font-family="Times,serif" font-size="14.00">StudentService </text>
</g>
<!-- UniversityModule -->
<g id="node4" class="node">
<title>UniversityModule</title>
<polygon fill="#8dd3c7" stroke="black" points="320.15,-187 317.15,-191 296.15,-191 293.15,-187 201.85,-187 201.85,-151 320.15,-151 320.15,-187"/>
<text text-anchor="middle" x="261" y="-164.8" font-family="Times,serif" font-size="14.00">UniversityModule</text>
</g>
<!-- UniversityModule&#45;&gt;FacultyService  -->
<g id="edge1" class="edge">
<title>UniversityModule&#45;&gt;FacultyService </title>
<path fill="none" stroke="black" stroke-dasharray="5,2" d="M320.46,-175C336.81,-175 350.14,-175 350.14,-175 350.14,-175 350.14,-205.98 350.14,-205.98"/>
<polygon fill="black" stroke="black" points="346.64,-205.98 350.14,-215.98 353.64,-205.98 346.64,-205.98"/>
</g>
<!-- UniversityModule&#45;&gt;StudentController  -->
<g id="edge2" class="edge">
<title>UniversityModule&#45;&gt;StudentController </title>
<path fill="none" stroke="black" stroke-dasharray="5,2" d="M261,-187.11C261,-187.11 261,-205.99 261,-205.99"/>
<polygon fill="black" stroke="black" points="257.5,-205.99 261,-215.99 264.5,-205.99 257.5,-205.99"/>
</g>
<!-- UniversityModule&#45;&gt;StudentService  -->
<g id="edge3" class="edge">
<title>UniversityModule&#45;&gt;StudentService </title>
<path fill="none" stroke="black" stroke-dasharray="5,2" d="M201.39,-175C185,-175 171.63,-175 171.63,-175 171.63,-175 171.63,-205.98 171.63,-205.98"/>
<polygon fill="black" stroke="black" points="168.13,-205.98 171.63,-215.98 175.13,-205.98 168.13,-205.98"/>
</g>
<!-- FacultyService -->
<g id="node5" class="node">
<title>FacultyService</title>
<ellipse fill="#fdb462" stroke="black" cx="428" cy="-104" rx="68.92" ry="18"/>
<text text-anchor="middle" x="428" y="-99.8" font-family="Times,serif" font-size="14.00">FacultyService</text>
</g>
<!-- FacultyService&#45;&gt;UniversityModule -->
<g id="edge4" class="edge">
<title>FacultyService&#45;&gt;UniversityModule</title>
<path fill="none" stroke="black" d="M400.89,-120.75C400.89,-138.19 400.89,-163 400.89,-163 400.89,-163 330.33,-163 330.33,-163"/>
<polygon fill="black" stroke="black" points="330.33,-159.5 320.33,-163 330.33,-166.5 330.33,-159.5"/>
</g>
<!-- StudentController -->
<g id="node6" class="node">
<title>StudentController</title>
<ellipse fill="#fdb462" stroke="black" cx="261" cy="-104" rx="80.48" ry="18"/>
<text text-anchor="middle" x="261" y="-99.8" font-family="Times,serif" font-size="14.00">StudentController</text>
</g>
<!-- StudentController&#45;&gt;UniversityModule -->
<g id="edge5" class="edge">
<title>StudentController&#45;&gt;UniversityModule</title>
<path fill="none" stroke="black" d="M261,-122.11C261,-122.11 261,-140.99 261,-140.99"/>
<polygon fill="black" stroke="black" points="257.5,-140.99 261,-150.99 264.5,-140.99 257.5,-140.99"/>
</g>
<!-- StudentService -->
<g id="node7" class="node">
<title>StudentService</title>
<ellipse fill="#fdb462" stroke="black" cx="93" cy="-104" rx="69.5" ry="18"/>
<text text-anchor="middle" x="93" y="-99.8" font-family="Times,serif" font-size="14.00">StudentService</text>
</g>
<!-- StudentService&#45;&gt;UniversityModule -->
<g id="edge6" class="edge">
<title>StudentService&#45;&gt;UniversityModule</title>
<path fill="none" stroke="black" d="M120.69,-120.75C120.69,-138.19 120.69,-163 120.69,-163 120.69,-163 191.49,-163 191.49,-163"/>
<polygon fill="black" stroke="black" points="191.49,-166.5 201.49,-163 191.49,-159.5 191.49,-166.5"/>
</g>
</g>
</svg>
