<?xml version="1.0" encoding="UTF-8" standalone="no"?>
<!DOCTYPE svg PUBLIC "-//W3C//DTD SVG 1.1//EN"
 "http://www.w3.org/Graphics/SVG/1.1/DTD/svg11.dtd">
<!-- Generated by graphviz version 2.47.0 (20210316.0004)
 -->
<!-- Title: dependencies Pages: 1 -->
<svg width="555pt" height="284pt"
 viewBox="0.00 0.00 555.00 284.00" xmlns="http://www.w3.org/2000/svg" xmlns:xlink="http://www.w3.org/1999/xlink">
<g id="graph0" class="graph" transform="scale(1 1) rotate(0) translate(4 280)">
<title>dependencies</title>
<polygon fill="white" stroke="transparent" points="-4,4 -4,-280 551,-280 551,4 -4,4"/>
<text text-anchor="start" x="252.51" y="-42.4" font-family="Times-12" font-weight="bold" font-size="14.00">Legend</text>
<polygon fill="#ffffb3" stroke="transparent" points="39.5,-10 39.5,-30 59.5,-30 59.5,-10 39.5,-10"/>
<text text-anchor="start" x="63.13" y="-15.4" font-family="Times-12" font-size="14.00"> &#160;Declarations</text>
<polygon fill="#8dd3c7" stroke="transparent" points="152.5,-10 152.5,-30 172.5,-30 172.5,-10 152.5,-10"/>
<text text-anchor="start" x="176.23" y="-15.4" font-family="Times-12" font-size="14.00"> &#160;Module</text>
<polygon fill="#80b1d3" stroke="transparent" points="238.5,-10 238.5,-30 258.5,-30 258.5,-10 238.5,-10"/>
<text text-anchor="start" x="262.28" y="-15.4" font-family="Times-12" font-size="14.00"> &#160;Bootstrap</text>
<polygon fill="#fdb462" stroke="transparent" points="335.5,-10 335.5,-30 355.5,-30 355.5,-10 335.5,-10"/>
<text text-anchor="start" x="359.17" y="-15.4" font-family="Times-12" font-size="14.00"> &#160;Providers</text>
<polygon fill="#fb8072" stroke="transparent" points="431.5,-10 431.5,-30 451.5,-30 451.5,-10 431.5,-10"/>
<text text-anchor="start" x="455.23" y="-15.4" font-family="Times-12" font-size="14.00"> &#160;Exports</text>
<g id="clust1" class="cluster">
<title>cluster_EventModule</title>
<polygon fill="none" stroke="black" stroke-dasharray="1,5" points="8,-70 8,-268 539,-268 539,-70 8,-70"/>
</g>
<g id="clust4" class="cluster">
<title>cluster_EventModule_exports</title>
<polygon fill="none" stroke="black" points="71,-208 71,-260 469,-260 469,-208 71,-208"/>
</g>
<g id="clust6" class="cluster">
<title>cluster_EventModule_providers</title>
<polygon fill="none" stroke="black" points="16,-78 16,-130 531,-130 531,-78 16,-78"/>
</g>
<!-- EventCreatorService  -->
<g id="node1" class="node">
<title>EventCreatorService </title>
<polygon fill="#fb8072" stroke="black" points="461.11,-252 324.89,-252 324.89,-216 461.11,-216 461.11,-252"/>
<text text-anchor="middle" x="393" y="-229.8" font-family="Times,serif" font-size="14.00">EventCreatorService </text>
</g>
<!-- EventService  -->
<g id="node2" class="node">
<title>EventService </title>
<polygon fill="#fb8072" stroke="black" points="307.14,-252 212.86,-252 212.86,-216 307.14,-216 307.14,-252"/>
<text text-anchor="middle" x="260" y="-229.8" font-family="Times,serif" font-size="14.00">EventService </text>
</g>
<!-- EventTagService  -->
<g id="node3" class="node">
<title>EventTagService </title>
<polygon fill="#fb8072" stroke="black" points="194.9,-252 79.1,-252 79.1,-216 194.9,-216 194.9,-252"/>
<text text-anchor="middle" x="137" y="-229.8" font-family="Times,serif" font-size="14.00">EventTagService </text>
</g>
<!-- EventModule -->
<g id="node4" class="node">
<title>EventModule</title>
<polygon fill="#8dd3c7" stroke="black" points="306.21,-187 303.21,-191 282.21,-191 279.21,-187 213.79,-187 213.79,-151 306.21,-151 306.21,-187"/>
<text text-anchor="middle" x="260" y="-164.8" font-family="Times,serif" font-size="14.00">EventModule</text>
</g>
<!-- EventModule&#45;&gt;EventCreatorService  -->
<g id="edge1" class="edge">
<title>EventModule&#45;&gt;EventCreatorService </title>
<path fill="none" stroke="black" stroke-dasharray="5,2" d="M306.48,-175C320.73,-175 332.73,-175 332.73,-175 332.73,-175 332.73,-205.98 332.73,-205.98"/>
<polygon fill="black" stroke="black" points="329.23,-205.98 332.73,-215.98 336.23,-205.98 329.23,-205.98"/>
</g>
<!-- EventModule&#45;&gt;EventService  -->
<g id="edge2" class="edge">
<title>EventModule&#45;&gt;EventService </title>
<path fill="none" stroke="black" stroke-dasharray="5,2" d="M260,-187.11C260,-187.11 260,-205.99 260,-205.99"/>
<polygon fill="black" stroke="black" points="256.5,-205.99 260,-215.99 263.5,-205.99 256.5,-205.99"/>
</g>
<!-- EventModule&#45;&gt;EventTagService  -->
<g id="edge3" class="edge">
<title>EventModule&#45;&gt;EventTagService </title>
<path fill="none" stroke="black" stroke-dasharray="5,2" d="M213.51,-175C199.25,-175 187.24,-175 187.24,-175 187.24,-175 187.24,-205.98 187.24,-205.98"/>
<polygon fill="black" stroke="black" points="183.74,-205.98 187.24,-215.98 190.74,-205.98 183.74,-205.98"/>
</g>
<!-- EventCreatorService -->
<g id="node5" class="node">
<title>EventCreatorService</title>
<ellipse fill="#fdb462" stroke="black" cx="432" cy="-104" rx="91.45" ry="18"/>
<text text-anchor="middle" x="432" y="-99.8" font-family="Times,serif" font-size="14.00">EventCreatorService</text>
</g>
<!-- EventCreatorService&#45;&gt;EventModule -->
<g id="edge4" class="edge">
<title>EventCreatorService&#45;&gt;EventModule</title>
<path fill="none" stroke="black" d="M400.79,-121.07C400.79,-138.49 400.79,-163 400.79,-163 400.79,-163 316.49,-163 316.49,-163"/>
<polygon fill="black" stroke="black" points="316.49,-159.5 306.49,-163 316.49,-166.5 316.49,-159.5"/>
</g>
<!-- EventService -->
<g id="node6" class="node">
<title>EventService</title>
<ellipse fill="#fdb462" stroke="black" cx="260" cy="-104" rx="62.54" ry="18"/>
<text text-anchor="middle" x="260" y="-99.8" font-family="Times,serif" font-size="14.00">EventService</text>
</g>
<!-- EventService&#45;&gt;EventModule -->
<g id="edge5" class="edge">
<title>EventService&#45;&gt;EventModule</title>
<path fill="none" stroke="black" d="M260,-122.11C260,-122.11 260,-140.99 260,-140.99"/>
<polygon fill="black" stroke="black" points="256.5,-140.99 260,-150.99 263.5,-140.99 256.5,-140.99"/>
</g>
<!-- EventTagService -->
<g id="node7" class="node">
<title>EventTagService</title>
<ellipse fill="#fdb462" stroke="black" cx="102" cy="-104" rx="77.57" ry="18"/>
<text text-anchor="middle" x="102" y="-99.8" font-family="Times,serif" font-size="14.00">EventTagService</text>
</g>
<!-- EventTagService&#45;&gt;EventModule -->
<g id="edge6" class="edge">
<title>EventTagService&#45;&gt;EventModule</title>
<path fill="none" stroke="black" d="M129.29,-121.07C129.29,-138.49 129.29,-163 129.29,-163 129.29,-163 203.55,-163 203.55,-163"/>
<polygon fill="black" stroke="black" points="203.55,-166.5 213.55,-163 203.55,-159.5 203.55,-166.5"/>
</g>
</g>
</svg>
