<?xml version="1.0" encoding="UTF-8" standalone="no"?>
<!DOCTYPE svg PUBLIC "-//W3C//DTD SVG 1.1//EN"
 "http://www.w3.org/Graphics/SVG/1.1/DTD/svg11.dtd">
<!-- Generated by graphviz version 2.47.0 (20210316.0004)
 -->
<!-- Title: dependencies Pages: 1 -->
<svg width="788pt" height="284pt"
 viewBox="0.00 0.00 788.00 284.00" xmlns="http://www.w3.org/2000/svg" xmlns:xlink="http://www.w3.org/1999/xlink">
<g id="graph0" class="graph" transform="scale(1 1) rotate(0) translate(4 280)">
<title>dependencies</title>
<polygon fill="white" stroke="transparent" points="-4,4 -4,-280 784,-280 784,4 -4,4"/>
<text text-anchor="start" x="369.01" y="-42.4" font-family="Times-12" font-weight="bold" font-size="14.00">Legend</text>
<polygon fill="#ffffb3" stroke="transparent" points="156,-10 156,-30 176,-30 176,-10 156,-10"/>
<text text-anchor="start" x="179.63" y="-15.4" font-family="Times-12" font-size="14.00"> &#160;Declarations</text>
<polygon fill="#8dd3c7" stroke="transparent" points="269,-10 269,-30 289,-30 289,-10 269,-10"/>
<text text-anchor="start" x="292.73" y="-15.4" font-family="Times-12" font-size="14.00"> &#160;Module</text>
<polygon fill="#80b1d3" stroke="transparent" points="355,-10 355,-30 375,-30 375,-10 355,-10"/>
<text text-anchor="start" x="378.78" y="-15.4" font-family="Times-12" font-size="14.00"> &#160;Bootstrap</text>
<polygon fill="#fdb462" stroke="transparent" points="452,-10 452,-30 472,-30 472,-10 452,-10"/>
<text text-anchor="start" x="475.67" y="-15.4" font-family="Times-12" font-size="14.00"> &#160;Providers</text>
<polygon fill="#fb8072" stroke="transparent" points="548,-10 548,-30 568,-30 568,-10 548,-10"/>
<text text-anchor="start" x="571.73" y="-15.4" font-family="Times-12" font-size="14.00"> &#160;Exports</text>
<g id="clust1" class="cluster">
<title>cluster_EventModule</title>
<polygon fill="none" stroke="black" stroke-dasharray="1,5" points="8,-70 8,-268 772,-268 772,-70 8,-70"/>
</g>
<g id="clust4" class="cluster">
<title>cluster_EventModule_exports</title>
<polygon fill="none" stroke="black" points="73,-208 73,-260 649,-260 649,-208 73,-208"/>
</g>
<g id="clust6" class="cluster">
<title>cluster_EventModule_providers</title>
<polygon fill="none" stroke="black" points="16,-78 16,-130 764,-130 764,-78 16,-78"/>
</g>
<!-- EventCreatorService  -->
<g id="node1" class="node">
<title>EventCreatorService </title>
<polygon fill="#fb8072" stroke="black" points="641.11,-252 504.89,-252 504.89,-216 641.11,-216 641.11,-252"/>
<text text-anchor="middle" x="573" y="-229.8" font-family="Times,serif" font-size="14.00">EventCreatorService </text>
</g>
<!-- EventParticipatorService  -->
<g id="node2" class="node">
<title>EventParticipatorService </title>
<polygon fill="#fb8072" stroke="black" points="486.95,-252 327.05,-252 327.05,-216 486.95,-216 486.95,-252"/>
<text text-anchor="middle" x="407" y="-229.8" font-family="Times,serif" font-size="14.00">EventParticipatorService </text>
</g>
<!-- EventService  -->
<g id="node3" class="node">
<title>EventService </title>
<polygon fill="#fb8072" stroke="black" points="309.14,-252 214.86,-252 214.86,-216 309.14,-216 309.14,-252"/>
<text text-anchor="middle" x="262" y="-229.8" font-family="Times,serif" font-size="14.00">EventService </text>
</g>
<!-- EventTagService  -->
<g id="node4" class="node">
<title>EventTagService </title>
<polygon fill="#fb8072" stroke="black" points="196.9,-252 81.1,-252 81.1,-216 196.9,-216 196.9,-252"/>
<text text-anchor="middle" x="139" y="-229.8" font-family="Times,serif" font-size="14.00">EventTagService </text>
</g>
<!-- EventModule -->
<g id="node5" class="node">
<title>EventModule</title>
<polygon fill="#8dd3c7" stroke="black" points="364.21,-187 361.21,-191 340.21,-191 337.21,-187 271.79,-187 271.79,-151 364.21,-151 364.21,-187"/>
<text text-anchor="middle" x="318" y="-164.8" font-family="Times,serif" font-size="14.00">EventModule</text>
</g>
<!-- EventModule&#45;&gt;EventCreatorService  -->
<g id="edge1" class="edge">
<title>EventModule&#45;&gt;EventCreatorService </title>
<path fill="none" stroke="black" stroke-dasharray="5,2" d="M364.32,-175C426.77,-175 530.26,-175 530.26,-175 530.26,-175 530.26,-205.98 530.26,-205.98"/>
<polygon fill="black" stroke="black" points="526.76,-205.98 530.26,-215.98 533.76,-205.98 526.76,-205.98"/>
</g>
<!-- EventModule&#45;&gt;EventParticipatorService  -->
<g id="edge2" class="edge">
<title>EventModule&#45;&gt;EventParticipatorService </title>
<path fill="none" stroke="black" stroke-dasharray="5,2" d="M345.69,-187.11C345.69,-187.11 345.69,-205.99 345.69,-205.99"/>
<polygon fill="black" stroke="black" points="342.19,-205.99 345.69,-215.99 349.19,-205.99 342.19,-205.99"/>
</g>
<!-- EventModule&#45;&gt;EventService  -->
<g id="edge3" class="edge">
<title>EventModule&#45;&gt;EventService </title>
<path fill="none" stroke="black" stroke-dasharray="5,2" d="M290.48,-187.11C290.48,-187.11 290.48,-205.99 290.48,-205.99"/>
<polygon fill="black" stroke="black" points="286.98,-205.99 290.48,-215.99 293.98,-205.99 286.98,-205.99"/>
</g>
<!-- EventModule&#45;&gt;EventTagService  -->
<g id="edge4" class="edge">
<title>EventModule&#45;&gt;EventTagService </title>
<path fill="none" stroke="black" stroke-dasharray="5,2" d="M271.89,-175C234.59,-175 188.24,-175 188.24,-175 188.24,-175 188.24,-205.98 188.24,-205.98"/>
<polygon fill="black" stroke="black" points="184.74,-205.98 188.24,-215.98 191.74,-205.98 184.74,-205.98"/>
</g>
<!-- EventCreatorService -->
<g id="node6" class="node">
<title>EventCreatorService</title>
<ellipse fill="#fdb462" stroke="black" cx="665" cy="-104" rx="91.45" ry="18"/>
<text text-anchor="middle" x="665" y="-99.8" font-family="Times,serif" font-size="14.00">EventCreatorService</text>
</g>
<!-- EventCreatorService&#45;&gt;EventModule -->
<g id="edge5" class="edge">
<title>EventCreatorService&#45;&gt;EventModule</title>
<path fill="none" stroke="black" d="M607.29,-117.98C607.29,-135.43 607.29,-163 607.29,-163 607.29,-163 374.16,-163 374.16,-163"/>
<polygon fill="black" stroke="black" points="374.16,-159.5 364.16,-163 374.16,-166.5 374.16,-159.5"/>
</g>
<!-- EventParticipatorService -->
<g id="node7" class="node">
<title>EventParticipatorService</title>
<ellipse fill="#fdb462" stroke="black" cx="448" cy="-104" rx="107.64" ry="18"/>
<text text-anchor="middle" x="448" y="-99.8" font-family="Times,serif" font-size="14.00">EventParticipatorService</text>
</g>
<!-- EventParticipatorService&#45;&gt;EventModule -->
<g id="edge6" class="edge">
<title>EventParticipatorService&#45;&gt;EventModule</title>
<path fill="none" stroke="black" d="M352.27,-112.23C352.27,-112.23 352.27,-140.76 352.27,-140.76"/>
<polygon fill="black" stroke="black" points="348.77,-140.76 352.27,-150.76 355.77,-140.76 348.77,-140.76"/>
</g>
<!-- EventService -->
<g id="node8" class="node">
<title>EventService</title>
<ellipse fill="#fdb462" stroke="black" cx="260" cy="-104" rx="62.54" ry="18"/>
<text text-anchor="middle" x="260" y="-99.8" font-family="Times,serif" font-size="14.00">EventService</text>
</g>
<!-- EventService&#45;&gt;EventModule -->
<g id="edge7" class="edge">
<title>EventService&#45;&gt;EventModule</title>
<path fill="none" stroke="black" d="M297.21,-118.75C297.21,-118.75 297.21,-140.59 297.21,-140.59"/>
<polygon fill="black" stroke="black" points="293.71,-140.59 297.21,-150.59 300.71,-140.59 293.71,-140.59"/>
</g>
<!-- EventTagService -->
<g id="node9" class="node">
<title>EventTagService</title>
<ellipse fill="#fdb462" stroke="black" cx="102" cy="-104" rx="77.57" ry="18"/>
<text text-anchor="middle" x="102" y="-99.8" font-family="Times,serif" font-size="14.00">EventTagService</text>
</g>
<!-- EventTagService&#45;&gt;EventModule -->
<g id="edge8" class="edge">
<title>EventTagService&#45;&gt;EventModule</title>
<path fill="none" stroke="black" d="M130.29,-121.07C130.29,-138.49 130.29,-163 130.29,-163 130.29,-163 261.6,-163 261.6,-163"/>
<polygon fill="black" stroke="black" points="261.6,-166.5 271.6,-163 261.6,-159.5 261.6,-166.5"/>
</g>
</g>
</svg>
