<?xml version="1.0" encoding="UTF-8" standalone="no"?>
<!DOCTYPE svg PUBLIC "-//W3C//DTD SVG 1.1//EN"
 "http://www.w3.org/Graphics/SVG/1.1/DTD/svg11.dtd">
<!-- Generated by graphviz version 2.47.0 (20210316.0004)
 -->
<!-- Title: dependencies Pages: 1 -->
<svg width="504pt" height="284pt"
 viewBox="0.00 0.00 504.00 284.00" xmlns="http://www.w3.org/2000/svg" xmlns:xlink="http://www.w3.org/1999/xlink">
<g id="graph0" class="graph" transform="scale(1 1) rotate(0) translate(4 280)">
<title>dependencies</title>
<polygon fill="white" stroke="transparent" points="-4,4 -4,-280 500,-280 500,4 -4,4"/>
<text text-anchor="start" x="227.01" y="-42.4" font-family="Times-12" font-weight="bold" font-size="14.00">Legend</text>
<polygon fill="#ffffb3" stroke="transparent" points="14,-10 14,-30 34,-30 34,-10 14,-10"/>
<text text-anchor="start" x="37.63" y="-15.4" font-family="Times-12" font-size="14.00"> &#160;Declarations</text>
<polygon fill="#8dd3c7" stroke="transparent" points="127,-10 127,-30 147,-30 147,-10 127,-10"/>
<text text-anchor="start" x="150.73" y="-15.4" font-family="Times-12" font-size="14.00"> &#160;Module</text>
<polygon fill="#80b1d3" stroke="transparent" points="213,-10 213,-30 233,-30 233,-10 213,-10"/>
<text text-anchor="start" x="236.78" y="-15.4" font-family="Times-12" font-size="14.00"> &#160;Bootstrap</text>
<polygon fill="#fdb462" stroke="transparent" points="310,-10 310,-30 330,-30 330,-10 310,-10"/>
<text text-anchor="start" x="333.67" y="-15.4" font-family="Times-12" font-size="14.00"> &#160;Providers</text>
<polygon fill="#fb8072" stroke="transparent" points="406,-10 406,-30 426,-30 426,-10 406,-10"/>
<text text-anchor="start" x="429.73" y="-15.4" font-family="Times-12" font-size="14.00"> &#160;Exports</text>
<g id="clust1" class="cluster">
<title>cluster_EnterpriseModule</title>
<polygon fill="none" stroke="black" stroke-dasharray="1,5" points="64,-70 64,-268 432,-268 432,-70 64,-70"/>
</g>
<g id="clust6" class="cluster">
<title>cluster_EnterpriseModule_providers</title>
<polygon fill="none" stroke="black" points="72,-78 72,-130 424,-130 424,-78 72,-78"/>
</g>
<g id="clust4" class="cluster">
<title>cluster_EnterpriseModule_exports</title>
<polygon fill="none" stroke="black" points="97,-208 97,-260 369,-260 369,-208 97,-208"/>
</g>
<!-- EmployeeService  -->
<g id="node1" class="node">
<title>EmployeeService </title>
<polygon fill="#fb8072" stroke="black" points="361.24,-252 242.76,-252 242.76,-216 361.24,-216 361.24,-252"/>
<text text-anchor="middle" x="302" y="-229.8" font-family="Times,serif" font-size="14.00">EmployeeService </text>
</g>
<!-- EnterpriseService  -->
<g id="node2" class="node">
<title>EnterpriseService </title>
<polygon fill="#fb8072" stroke="black" points="224.51,-252 105.49,-252 105.49,-216 224.51,-216 224.51,-252"/>
<text text-anchor="middle" x="165" y="-229.8" font-family="Times,serif" font-size="14.00">EnterpriseService </text>
</g>
<!-- EnterpriseModule -->
<g id="node3" class="node">
<title>EnterpriseModule</title>
<polygon fill="#8dd3c7" stroke="black" points="248.58,-187 245.58,-191 224.58,-191 221.58,-187 131.42,-187 131.42,-151 248.58,-151 248.58,-187"/>
<text text-anchor="middle" x="190" y="-164.8" font-family="Times,serif" font-size="14.00">EnterpriseModule</text>
</g>
<!-- EnterpriseModule&#45;&gt;EmployeeService  -->
<g id="edge1" class="edge">
<title>EnterpriseModule&#45;&gt;EmployeeService </title>
<path fill="none" stroke="black" stroke-dasharray="5,2" d="M248.65,-169C251.5,-169 253.2,-169 253.2,-169 253.2,-169 253.2,-205.89 253.2,-205.89"/>
<polygon fill="black" stroke="black" points="249.7,-205.89 253.2,-215.89 256.7,-205.89 249.7,-205.89"/>
</g>
<!-- EnterpriseModule&#45;&gt;EnterpriseService  -->
<g id="edge2" class="edge">
<title>EnterpriseModule&#45;&gt;EnterpriseService </title>
<path fill="none" stroke="black" stroke-dasharray="5,2" d="M177.98,-187.11C177.98,-187.11 177.98,-205.99 177.98,-205.99"/>
<polygon fill="black" stroke="black" points="174.48,-205.99 177.98,-215.99 181.48,-205.99 174.48,-205.99"/>
</g>
<!-- EmployeeService -->
<g id="node4" class="node">
<title>EmployeeService</title>
<ellipse fill="#fdb462" stroke="black" cx="337" cy="-104" rx="79.29" ry="18"/>
<text text-anchor="middle" x="337" y="-99.8" font-family="Times,serif" font-size="14.00">EmployeeService</text>
</g>
<!-- EmployeeService&#45;&gt;EnterpriseModule -->
<g id="edge3" class="edge">
<title>EmployeeService&#45;&gt;EnterpriseModule</title>
<path fill="none" stroke="black" d="M257.81,-104C249.56,-104 244.11,-104 244.11,-104 244.11,-104 244.11,-140.89 244.11,-140.89"/>
<polygon fill="black" stroke="black" points="240.61,-140.89 244.11,-150.89 247.61,-140.89 240.61,-140.89"/>
</g>
<!-- EnterpriseService -->
<g id="node5" class="node">
<title>EnterpriseService</title>
<ellipse fill="#fdb462" stroke="black" cx="160" cy="-104" rx="79.85" ry="18"/>
<text text-anchor="middle" x="160" y="-99.8" font-family="Times,serif" font-size="14.00">EnterpriseService</text>
</g>
<!-- EnterpriseService&#45;&gt;EnterpriseModule -->
<g id="edge4" class="edge">
<title>EnterpriseService&#45;&gt;EnterpriseModule</title>
<path fill="none" stroke="black" d="M185.57,-121.08C185.57,-121.08 185.57,-140.9 185.57,-140.9"/>
<polygon fill="black" stroke="black" points="182.07,-140.9 185.57,-150.9 189.07,-140.9 182.07,-140.9"/>
</g>
</g>
</svg>
