<?xml version="1.0" encoding="UTF-8" standalone="no"?>
<!DOCTYPE svg PUBLIC "-//W3C//DTD SVG 1.1//EN"
 "http://www.w3.org/Graphics/SVG/1.1/DTD/svg11.dtd">
<!-- Generated by graphviz version 2.47.0 (20210316.0004)
 -->
<!-- Title: dependencies Pages: 1 -->
<svg width="504pt" height="211pt"
 viewBox="0.00 0.00 504.00 211.00" xmlns="http://www.w3.org/2000/svg" xmlns:xlink="http://www.w3.org/1999/xlink">
<g id="graph0" class="graph" transform="scale(1 1) rotate(0) translate(4 207)">
<title>dependencies</title>
<polygon fill="white" stroke="transparent" points="-4,4 -4,-207 500,-207 500,4 -4,4"/>
<text text-anchor="start" x="227.01" y="-42.4" font-family="Times-12" font-weight="bold" font-size="14.00">Legend</text>
<polygon fill="#ffffb3" stroke="transparent" points="14,-10 14,-30 34,-30 34,-10 14,-10"/>
<text text-anchor="start" x="37.63" y="-15.4" font-family="Times-12" font-size="14.00"> &#160;Declarations</text>
<polygon fill="#8dd3c7" stroke="transparent" points="127,-10 127,-30 147,-30 147,-10 127,-10"/>
<text text-anchor="start" x="150.73" y="-15.4" font-family="Times-12" font-size="14.00"> &#160;Module</text>
<polygon fill="#80b1d3" stroke="transparent" points="213,-10 213,-30 233,-30 233,-10 213,-10"/>
<text text-anchor="start" x="236.78" y="-15.4" font-family="Times-12" font-size="14.00"> &#160;Bootstrap</text>
<polygon fill="#fdb462" stroke="transparent" points="310,-10 310,-30 330,-30 330,-10 310,-10"/>
<text text-anchor="start" x="333.67" y="-15.4" font-family="Times-12" font-size="14.00"> &#160;Providers</text>
<polygon fill="#fb8072" stroke="transparent" points="406,-10 406,-30 426,-30 426,-10 406,-10"/>
<text text-anchor="start" x="429.73" y="-15.4" font-family="Times-12" font-size="14.00"> &#160;Exports</text>
<g id="clust1" class="cluster">
<title>cluster_EnterpriseModule</title>
<polygon fill="none" stroke="black" stroke-dasharray="1,5" points="75.5,-70 75.5,-195 420.5,-195 420.5,-70 75.5,-70"/>
</g>
<g id="clust3" class="cluster">
<title>cluster_EnterpriseModule_imports</title>
<polygon fill="none" stroke="black" points="83.5,-78 83.5,-130 412.5,-130 412.5,-78 83.5,-78"/>
</g>
<!-- AuthModule -->
<g id="node1" class="node">
<title>AuthModule</title>
<polygon fill="#8dd3c7" stroke="black" points="404.05,-122 401.05,-126 380.05,-126 377.05,-122 316.95,-122 316.95,-86 404.05,-86 404.05,-122"/>
<text text-anchor="middle" x="360.5" y="-99.8" font-family="Times,serif" font-size="14.00">AuthModule</text>
</g>
<!-- EnterpriseModule -->
<g id="node4" class="node">
<title>EnterpriseModule</title>
<polygon fill="#8dd3c7" stroke="black" points="308.08,-187 305.08,-191 284.08,-191 281.08,-187 190.92,-187 190.92,-151 308.08,-151 308.08,-187"/>
<text text-anchor="middle" x="249.5" y="-164.8" font-family="Times,serif" font-size="14.00">EnterpriseModule</text>
</g>
<!-- AuthModule&#45;&gt;EnterpriseModule -->
<g id="edge1" class="edge">
<title>AuthModule&#45;&gt;EnterpriseModule</title>
<path fill="none" stroke="black" d="M316.77,-104C309.13,-104 303.57,-104 303.57,-104 303.57,-104 303.57,-140.89 303.57,-140.89"/>
<polygon fill="black" stroke="black" points="300.07,-140.89 303.57,-150.89 307.07,-140.89 300.07,-140.89"/>
</g>
<!-- DeviceModule -->
<g id="node2" class="node">
<title>DeviceModule</title>
<polygon fill="#8dd3c7" stroke="black" points="299.19,-122 296.19,-126 275.19,-126 272.19,-122 199.81,-122 199.81,-86 299.19,-86 299.19,-122"/>
<text text-anchor="middle" x="249.5" y="-99.8" font-family="Times,serif" font-size="14.00">DeviceModule</text>
</g>
<!-- DeviceModule&#45;&gt;EnterpriseModule -->
<g id="edge2" class="edge">
<title>DeviceModule&#45;&gt;EnterpriseModule</title>
<path fill="none" stroke="black" d="M249.5,-122.11C249.5,-122.11 249.5,-140.99 249.5,-140.99"/>
<polygon fill="black" stroke="black" points="246,-140.99 249.5,-150.99 253,-140.99 246,-140.99"/>
</g>
<!-- HookModule -->
<g id="node3" class="node">
<title>HookModule</title>
<polygon fill="#8dd3c7" stroke="black" points="181.66,-122 178.66,-126 157.66,-126 154.66,-122 91.34,-122 91.34,-86 181.66,-86 181.66,-122"/>
<text text-anchor="middle" x="136.5" y="-99.8" font-family="Times,serif" font-size="14.00">HookModule</text>
</g>
<!-- HookModule&#45;&gt;EnterpriseModule -->
<g id="edge3" class="edge">
<title>HookModule&#45;&gt;EnterpriseModule</title>
<path fill="none" stroke="black" d="M181.76,-104C189.68,-104 195.43,-104 195.43,-104 195.43,-104 195.43,-140.89 195.43,-140.89"/>
<polygon fill="black" stroke="black" points="191.93,-140.89 195.43,-150.89 198.93,-140.89 191.93,-140.89"/>
</g>
</g>
</svg>
