<?xml version="1.0" encoding="UTF-8" standalone="no"?>
<!DOCTYPE svg PUBLIC "-//W3C//DTD SVG 1.1//EN"
 "http://www.w3.org/Graphics/SVG/1.1/DTD/svg11.dtd">
<!-- Generated by graphviz version 2.47.0 (20210316.0004)
 -->
<!-- Title: dependencies Pages: 1 -->
<svg width="504pt" height="284pt"
 viewBox="0.00 0.00 504.00 284.00" xmlns="http://www.w3.org/2000/svg" xmlns:xlink="http://www.w3.org/1999/xlink">
<g id="graph0" class="graph" transform="scale(1 1) rotate(0) translate(4 280)">
<title>dependencies</title>
<polygon fill="white" stroke="transparent" points="-4,4 -4,-280 500,-280 500,4 -4,4"/>
<text text-anchor="start" x="227.01" y="-42.4" font-family="Times-12" font-weight="bold" font-size="14.00">Legend</text>
<polygon fill="#ffffb3" stroke="transparent" points="14,-10 14,-30 34,-30 34,-10 14,-10"/>
<text text-anchor="start" x="37.63" y="-15.4" font-family="Times-12" font-size="14.00"> &#160;Declarations</text>
<polygon fill="#8dd3c7" stroke="transparent" points="127,-10 127,-30 147,-30 147,-10 127,-10"/>
<text text-anchor="start" x="150.73" y="-15.4" font-family="Times-12" font-size="14.00"> &#160;Module</text>
<polygon fill="#80b1d3" stroke="transparent" points="213,-10 213,-30 233,-30 233,-10 213,-10"/>
<text text-anchor="start" x="236.78" y="-15.4" font-family="Times-12" font-size="14.00"> &#160;Bootstrap</text>
<polygon fill="#fdb462" stroke="transparent" points="310,-10 310,-30 330,-30 330,-10 310,-10"/>
<text text-anchor="start" x="333.67" y="-15.4" font-family="Times-12" font-size="14.00"> &#160;Providers</text>
<polygon fill="#fb8072" stroke="transparent" points="406,-10 406,-30 426,-30 426,-10 406,-10"/>
<text text-anchor="start" x="429.73" y="-15.4" font-family="Times-12" font-size="14.00"> &#160;Exports</text>
<g id="clust1" class="cluster">
<title>cluster_NotificationModule</title>
<polygon fill="none" stroke="black" stroke-dasharray="1,5" points="62,-70 62,-268 434,-268 434,-70 62,-70"/>
</g>
<g id="clust4" class="cluster">
<title>cluster_NotificationModule_exports</title>
<polygon fill="none" stroke="black" points="95,-208 95,-260 370,-260 370,-208 95,-208"/>
</g>
<g id="clust6" class="cluster">
<title>cluster_NotificationModule_providers</title>
<polygon fill="none" stroke="black" points="70,-78 70,-130 426,-130 426,-78 70,-78"/>
</g>
<!-- NotificationService  -->
<g id="node1" class="node">
<title>NotificationService </title>
<polygon fill="#fb8072" stroke="black" points="361.63,-252 232.37,-252 232.37,-216 361.63,-216 361.63,-252"/>
<text text-anchor="middle" x="297" y="-229.8" font-family="Times,serif" font-size="14.00">NotificationService </text>
</g>
<!-- RecieverService  -->
<g id="node2" class="node">
<title>RecieverService </title>
<polygon fill="#fb8072" stroke="black" points="214.72,-252 103.28,-252 103.28,-216 214.72,-216 214.72,-252"/>
<text text-anchor="middle" x="159" y="-229.8" font-family="Times,serif" font-size="14.00">RecieverService </text>
</g>
<!-- NotificationModule -->
<g id="node3" class="node">
<title>NotificationModule</title>
<polygon fill="#8dd3c7" stroke="black" points="246.7,-187 243.7,-191 222.7,-191 219.7,-187 119.3,-187 119.3,-151 246.7,-151 246.7,-187"/>
<text text-anchor="middle" x="183" y="-164.8" font-family="Times,serif" font-size="14.00">NotificationModule</text>
</g>
<!-- NotificationModule&#45;&gt;NotificationService  -->
<g id="edge1" class="edge">
<title>NotificationModule&#45;&gt;NotificationService </title>
<path fill="none" stroke="black" stroke-dasharray="5,2" d="M239.52,-187.11C239.52,-187.11 239.52,-205.99 239.52,-205.99"/>
<polygon fill="black" stroke="black" points="236.02,-205.99 239.52,-215.99 243.02,-205.99 236.02,-205.99"/>
</g>
<!-- NotificationModule&#45;&gt;RecieverService  -->
<g id="edge2" class="edge">
<title>NotificationModule&#45;&gt;RecieverService </title>
<path fill="none" stroke="black" stroke-dasharray="5,2" d="M167.01,-187.11C167.01,-187.11 167.01,-205.99 167.01,-205.99"/>
<polygon fill="black" stroke="black" points="163.51,-205.99 167.01,-215.99 170.51,-205.99 163.51,-205.99"/>
</g>
<!-- NotificationService -->
<g id="node4" class="node">
<title>NotificationService</title>
<ellipse fill="#fdb462" stroke="black" cx="331" cy="-104" rx="86.81" ry="18"/>
<text text-anchor="middle" x="331" y="-99.8" font-family="Times,serif" font-size="14.00">NotificationService</text>
</g>
<!-- NotificationService&#45;&gt;NotificationModule -->
<g id="edge3" class="edge">
<title>NotificationService&#45;&gt;NotificationModule</title>
<path fill="none" stroke="black" d="M244.15,-104C238.69,-104 235.33,-104 235.33,-104 235.33,-104 235.33,-140.89 235.33,-140.89"/>
<polygon fill="black" stroke="black" points="231.83,-140.89 235.33,-150.89 238.83,-140.89 231.83,-140.89"/>
</g>
<!-- RecieverService -->
<g id="node5" class="node">
<title>RecieverService</title>
<ellipse fill="#fdb462" stroke="black" cx="152" cy="-104" rx="74.11" ry="18"/>
<text text-anchor="middle" x="152" y="-99.8" font-family="Times,serif" font-size="14.00">RecieverService</text>
</g>
<!-- RecieverService&#45;&gt;NotificationModule -->
<g id="edge4" class="edge">
<title>RecieverService&#45;&gt;NotificationModule</title>
<path fill="none" stroke="black" d="M172.85,-121.42C172.85,-121.42 172.85,-140.62 172.85,-140.62"/>
<polygon fill="black" stroke="black" points="169.35,-140.62 172.85,-150.62 176.35,-140.62 169.35,-140.62"/>
</g>
</g>
</svg>
