<?xml version="1.0" encoding="UTF-8" standalone="no"?>
<!DOCTYPE svg PUBLIC "-//W3C//DTD SVG 1.1//EN"
 "http://www.w3.org/Graphics/SVG/1.1/DTD/svg11.dtd">
<!-- Generated by graphviz version 2.47.0 (20210316.0004)
 -->
<!-- Title: dependencies Pages: 1 -->
<svg width="977pt" height="211pt"
 viewBox="0.00 0.00 977.00 211.00" xmlns="http://www.w3.org/2000/svg" xmlns:xlink="http://www.w3.org/1999/xlink">
<g id="graph0" class="graph" transform="scale(1 1) rotate(0) translate(4 207)">
<title>dependencies</title>
<polygon fill="white" stroke="transparent" points="-4,4 -4,-207 973,-207 973,4 -4,4"/>
<text text-anchor="start" x="463.51" y="-42.4" font-family="Times-12" font-weight="bold" font-size="14.00">Legend</text>
<polygon fill="#ffffb3" stroke="transparent" points="250.5,-10 250.5,-30 270.5,-30 270.5,-10 250.5,-10"/>
<text text-anchor="start" x="274.13" y="-15.4" font-family="Times-12" font-size="14.00"> &#160;Declarations</text>
<polygon fill="#8dd3c7" stroke="transparent" points="363.5,-10 363.5,-30 383.5,-30 383.5,-10 363.5,-10"/>
<text text-anchor="start" x="387.23" y="-15.4" font-family="Times-12" font-size="14.00"> &#160;Module</text>
<polygon fill="#80b1d3" stroke="transparent" points="449.5,-10 449.5,-30 469.5,-30 469.5,-10 449.5,-10"/>
<text text-anchor="start" x="473.28" y="-15.4" font-family="Times-12" font-size="14.00"> &#160;Bootstrap</text>
<polygon fill="#fdb462" stroke="transparent" points="546.5,-10 546.5,-30 566.5,-30 566.5,-10 546.5,-10"/>
<text text-anchor="start" x="570.17" y="-15.4" font-family="Times-12" font-size="14.00"> &#160;Providers</text>
<polygon fill="#fb8072" stroke="transparent" points="642.5,-10 642.5,-30 662.5,-30 662.5,-10 642.5,-10"/>
<text text-anchor="start" x="666.23" y="-15.4" font-family="Times-12" font-size="14.00"> &#160;Exports</text>
<g id="clust1" class="cluster">
<title>cluster_AppModule</title>
<polygon fill="none" stroke="black" stroke-dasharray="1,5" points="8,-70 8,-195 961,-195 961,-70 8,-70"/>
</g>
<g id="clust3" class="cluster">
<title>cluster_AppModule_imports</title>
<polygon fill="none" stroke="black" points="16,-78 16,-130 953,-130 953,-78 16,-78"/>
</g>
<!-- AuthModule -->
<g id="node1" class="node">
<title>AuthModule</title>
<polygon fill="#8dd3c7" stroke="black" points="944.55,-122 941.55,-126 920.55,-126 917.55,-122 857.45,-122 857.45,-86 944.55,-86 944.55,-122"/>
<text text-anchor="middle" x="901" y="-99.8" font-family="Times,serif" font-size="14.00">AuthModule</text>
</g>
<!-- AppModule -->
<g id="node9" class="node">
<title>AppModule</title>
<polygon fill="#8dd3c7" stroke="black" points="527.66,-187 524.66,-191 503.66,-191 500.66,-187 444.34,-187 444.34,-151 527.66,-151 527.66,-187"/>
<text text-anchor="middle" x="486" y="-164.8" font-family="Times,serif" font-size="14.00">AppModule</text>
</g>
<!-- AuthModule&#45;&gt;AppModule -->
<g id="edge1" class="edge">
<title>AuthModule&#45;&gt;AppModule</title>
<path fill="none" stroke="black" d="M901,-122.29C901,-144.21 901,-178 901,-178 901,-178 537.69,-178 537.69,-178"/>
<polygon fill="black" stroke="black" points="537.69,-174.5 527.69,-178 537.69,-181.5 537.69,-174.5"/>
</g>
<!-- DeviceModule -->
<g id="node2" class="node">
<title>DeviceModule</title>
<polygon fill="#8dd3c7" stroke="black" points="839.69,-122 836.69,-126 815.69,-126 812.69,-122 740.31,-122 740.31,-86 839.69,-86 839.69,-122"/>
<text text-anchor="middle" x="790" y="-99.8" font-family="Times,serif" font-size="14.00">DeviceModule</text>
</g>
<!-- DeviceModule&#45;&gt;AppModule -->
<g id="edge2" class="edge">
<title>DeviceModule&#45;&gt;AppModule</title>
<path fill="none" stroke="black" d="M790,-122.11C790,-141.34 790,-169 790,-169 790,-169 537.95,-169 537.95,-169"/>
<polygon fill="black" stroke="black" points="537.95,-165.5 527.95,-169 537.95,-172.5 537.95,-165.5"/>
</g>
<!-- EnterpriseModule -->
<g id="node3" class="node">
<title>EnterpriseModule</title>
<polygon fill="#8dd3c7" stroke="black" points="722.58,-122 719.58,-126 698.58,-126 695.58,-122 605.42,-122 605.42,-86 722.58,-86 722.58,-122"/>
<text text-anchor="middle" x="664" y="-99.8" font-family="Times,serif" font-size="14.00">EnterpriseModule</text>
</g>
<!-- EnterpriseModule&#45;&gt;AppModule -->
<g id="edge3" class="edge">
<title>EnterpriseModule&#45;&gt;AppModule</title>
<path fill="none" stroke="black" d="M664,-122.03C664,-138.4 664,-160 664,-160 664,-160 537.73,-160 537.73,-160"/>
<polygon fill="black" stroke="black" points="537.73,-156.5 527.73,-160 537.73,-163.5 537.73,-156.5"/>
</g>
<!-- EventModule -->
<g id="node4" class="node">
<title>EventModule</title>
<polygon fill="#8dd3c7" stroke="black" points="587.21,-122 584.21,-126 563.21,-126 560.21,-122 494.79,-122 494.79,-86 587.21,-86 587.21,-122"/>
<text text-anchor="middle" x="541" y="-99.8" font-family="Times,serif" font-size="14.00">EventModule</text>
</g>
<!-- EventModule&#45;&gt;AppModule -->
<g id="edge4" class="edge">
<title>EventModule&#45;&gt;AppModule</title>
<path fill="none" stroke="black" d="M511.36,-122.11C511.36,-122.11 511.36,-140.99 511.36,-140.99"/>
<polygon fill="black" stroke="black" points="507.86,-140.99 511.36,-150.99 514.86,-140.99 507.86,-140.99"/>
</g>
<!-- HookModule -->
<g id="node5" class="node">
<title>HookModule</title>
<polygon fill="#8dd3c7" stroke="black" points="477.16,-122 474.16,-126 453.16,-126 450.16,-122 386.84,-122 386.84,-86 477.16,-86 477.16,-122"/>
<text text-anchor="middle" x="432" y="-99.8" font-family="Times,serif" font-size="14.00">HookModule</text>
</g>
<!-- HookModule&#45;&gt;AppModule -->
<g id="edge5" class="edge">
<title>HookModule&#45;&gt;AppModule</title>
<path fill="none" stroke="black" d="M460.75,-122.11C460.75,-122.11 460.75,-140.99 460.75,-140.99"/>
<polygon fill="black" stroke="black" points="457.25,-140.99 460.75,-150.99 464.25,-140.99 457.25,-140.99"/>
</g>
<!-- NotificationModule -->
<g id="node6" class="node">
<title>NotificationModule</title>
<polygon fill="#8dd3c7" stroke="black" points="368.7,-122 365.7,-126 344.7,-126 341.7,-122 241.3,-122 241.3,-86 368.7,-86 368.7,-122"/>
<text text-anchor="middle" x="305" y="-99.8" font-family="Times,serif" font-size="14.00">NotificationModule</text>
</g>
<!-- NotificationModule&#45;&gt;AppModule -->
<g id="edge6" class="edge">
<title>NotificationModule&#45;&gt;AppModule</title>
<path fill="none" stroke="black" d="M305,-122.03C305,-138.4 305,-160 305,-160 305,-160 434.02,-160 434.02,-160"/>
<polygon fill="black" stroke="black" points="434.02,-163.5 444.02,-160 434.02,-156.5 434.02,-163.5"/>
</g>
<!-- UniversityModule -->
<g id="node7" class="node">
<title>UniversityModule</title>
<polygon fill="#8dd3c7" stroke="black" points="223.15,-122 220.15,-126 199.15,-126 196.15,-122 104.85,-122 104.85,-86 223.15,-86 223.15,-122"/>
<text text-anchor="middle" x="164" y="-99.8" font-family="Times,serif" font-size="14.00">UniversityModule</text>
</g>
<!-- UniversityModule&#45;&gt;AppModule -->
<g id="edge7" class="edge">
<title>UniversityModule&#45;&gt;AppModule</title>
<path fill="none" stroke="black" d="M164,-122.11C164,-141.34 164,-169 164,-169 164,-169 434.23,-169 434.23,-169"/>
<polygon fill="black" stroke="black" points="434.23,-172.5 444.23,-169 434.23,-165.5 434.23,-172.5"/>
</g>
<!-- loadEnv -->
<g id="node8" class="node">
<title>loadEnv</title>
<polygon fill="#8dd3c7" stroke="black" points="86.16,-122 83.16,-126 62.16,-126 59.16,-122 23.84,-122 23.84,-86 86.16,-86 86.16,-122"/>
<text text-anchor="middle" x="55" y="-99.8" font-family="Times,serif" font-size="14.00">loadEnv</text>
</g>
<!-- loadEnv&#45;&gt;AppModule -->
<g id="edge8" class="edge">
<title>loadEnv&#45;&gt;AppModule</title>
<path fill="none" stroke="black" d="M55,-122.29C55,-144.21 55,-178 55,-178 55,-178 434.28,-178 434.28,-178"/>
<polygon fill="black" stroke="black" points="434.28,-181.5 444.28,-178 434.28,-174.5 434.28,-181.5"/>
</g>
</g>
</svg>
