<?xml version="1.0" encoding="UTF-8" standalone="no"?>
<!DOCTYPE svg PUBLIC "-//W3C//DTD SVG 1.1//EN"
 "http://www.w3.org/Graphics/SVG/1.1/DTD/svg11.dtd">
<!-- Generated by graphviz version 2.47.0 (20210316.0004)
 -->
<!-- Title: dependencies Pages: 1 -->
<svg width="1466pt" height="211pt"
 viewBox="0.00 0.00 1466.00 211.00" xmlns="http://www.w3.org/2000/svg" xmlns:xlink="http://www.w3.org/1999/xlink">
<g id="graph0" class="graph" transform="scale(1 1) rotate(0) translate(4 207)">
<title>dependencies</title>
<polygon fill="white" stroke="transparent" points="-4,4 -4,-207 1462,-207 1462,4 -4,4"/>
<text text-anchor="start" x="708.01" y="-42.4" font-family="Times-12" font-weight="bold" font-size="14.00">Legend</text>
<polygon fill="#ffffb3" stroke="transparent" points="495,-10 495,-30 515,-30 515,-10 495,-10"/>
<text text-anchor="start" x="518.63" y="-15.4" font-family="Times-12" font-size="14.00"> &#160;Declarations</text>
<polygon fill="#8dd3c7" stroke="transparent" points="608,-10 608,-30 628,-30 628,-10 608,-10"/>
<text text-anchor="start" x="631.73" y="-15.4" font-family="Times-12" font-size="14.00"> &#160;Module</text>
<polygon fill="#80b1d3" stroke="transparent" points="694,-10 694,-30 714,-30 714,-10 694,-10"/>
<text text-anchor="start" x="717.78" y="-15.4" font-family="Times-12" font-size="14.00"> &#160;Bootstrap</text>
<polygon fill="#fdb462" stroke="transparent" points="791,-10 791,-30 811,-30 811,-10 791,-10"/>
<text text-anchor="start" x="814.67" y="-15.4" font-family="Times-12" font-size="14.00"> &#160;Providers</text>
<polygon fill="#fb8072" stroke="transparent" points="887,-10 887,-30 907,-30 907,-10 887,-10"/>
<text text-anchor="start" x="910.73" y="-15.4" font-family="Times-12" font-size="14.00"> &#160;Exports</text>
<g id="clust1" class="cluster">
<title>cluster_AppModule</title>
<polygon fill="none" stroke="black" stroke-dasharray="1,5" points="8,-70 8,-195 1450,-195 1450,-70 8,-70"/>
</g>
<g id="clust4" class="cluster">
<title>cluster_AppModule_exports</title>
<polygon fill="none" stroke="black" points="16,-135 16,-187 1442,-187 1442,-135 16,-135"/>
</g>
<!-- AppService  -->
<g id="node1" class="node">
<title>AppService </title>
<polygon fill="#fb8072" stroke="black" points="1433.59,-179 1348.41,-179 1348.41,-143 1433.59,-143 1433.59,-179"/>
<text text-anchor="middle" x="1391" y="-156.8" font-family="Times,serif" font-size="14.00">AppService </text>
</g>
<!-- AuthModule  -->
<g id="node2" class="node">
<title>AuthModule </title>
<polygon fill="#fb8072" stroke="black" points="1330.55,-179 1239.45,-179 1239.45,-143 1330.55,-143 1330.55,-179"/>
<text text-anchor="middle" x="1285" y="-156.8" font-family="Times,serif" font-size="14.00">AuthModule </text>
</g>
<!-- DeviceModule  -->
<g id="node3" class="node">
<title>DeviceModule </title>
<polygon fill="#fb8072" stroke="black" points="1221.19,-179 1118.81,-179 1118.81,-143 1221.19,-143 1221.19,-179"/>
<text text-anchor="middle" x="1170" y="-156.8" font-family="Times,serif" font-size="14.00">DeviceModule </text>
</g>
<!-- EnterpriseModule  -->
<g id="node4" class="node">
<title>EnterpriseModule </title>
<polygon fill="#fb8072" stroke="black" points="1100.08,-179 979.92,-179 979.92,-143 1100.08,-143 1100.08,-179"/>
<text text-anchor="middle" x="1040" y="-156.8" font-family="Times,serif" font-size="14.00">EnterpriseModule </text>
</g>
<!-- EventModule  -->
<g id="node5" class="node">
<title>EventModule </title>
<polygon fill="#fb8072" stroke="black" points="961.71,-179 866.29,-179 866.29,-143 961.71,-143 961.71,-179"/>
<text text-anchor="middle" x="914" y="-156.8" font-family="Times,serif" font-size="14.00">EventModule </text>
</g>
<!-- FileModule  -->
<g id="node6" class="node">
<title>FileModule </title>
<polygon fill="#fb8072" stroke="black" points="848.33,-179 763.67,-179 763.67,-143 848.33,-143 848.33,-179"/>
<text text-anchor="middle" x="806" y="-156.8" font-family="Times,serif" font-size="14.00">FileModule </text>
</g>
<!-- HookModule  -->
<g id="node7" class="node">
<title>HookModule </title>
<polygon fill="#fb8072" stroke="black" points="746.16,-179 651.84,-179 651.84,-143 746.16,-143 746.16,-179"/>
<text text-anchor="middle" x="699" y="-156.8" font-family="Times,serif" font-size="14.00">HookModule </text>
</g>
<!-- MailModule  -->
<g id="node8" class="node">
<title>MailModule </title>
<polygon fill="#fb8072" stroke="black" points="633.99,-179 544.01,-179 544.01,-143 633.99,-143 633.99,-179"/>
<text text-anchor="middle" x="589" y="-156.8" font-family="Times,serif" font-size="14.00">MailModule </text>
</g>
<!-- NotificationModule  -->
<g id="node9" class="node">
<title>NotificationModule </title>
<polygon fill="#fb8072" stroke="black" points="526.2,-179 395.8,-179 395.8,-143 526.2,-143 526.2,-179"/>
<text text-anchor="middle" x="461" y="-156.8" font-family="Times,serif" font-size="14.00">NotificationModule </text>
</g>
<!-- SessionModule  -->
<g id="node10" class="node">
<title>SessionModule </title>
<polygon fill="#fb8072" stroke="black" points="377.83,-179 272.17,-179 272.17,-143 377.83,-143 377.83,-179"/>
<text text-anchor="middle" x="325" y="-156.8" font-family="Times,serif" font-size="14.00">SessionModule </text>
</g>
<!-- UniversityModule  -->
<g id="node11" class="node">
<title>UniversityModule </title>
<polygon fill="#fb8072" stroke="black" points="254.15,-179 131.85,-179 131.85,-143 254.15,-143 254.15,-179"/>
<text text-anchor="middle" x="193" y="-156.8" font-family="Times,serif" font-size="14.00">UniversityModule </text>
</g>
<!-- UserModule  -->
<g id="node12" class="node">
<title>UserModule </title>
<polygon fill="#fb8072" stroke="black" points="113.98,-179 24.02,-179 24.02,-143 113.98,-143 113.98,-179"/>
<text text-anchor="middle" x="69" y="-156.8" font-family="Times,serif" font-size="14.00">UserModule </text>
</g>
<!-- AppModule -->
<g id="node13" class="node">
<title>AppModule</title>
<polygon fill="#8dd3c7" stroke="black" points="793.66,-114 790.66,-118 769.66,-118 766.66,-114 710.34,-114 710.34,-78 793.66,-78 793.66,-114"/>
<text text-anchor="middle" x="752" y="-91.8" font-family="Times,serif" font-size="14.00">AppModule</text>
</g>
<!-- AppModule&#45;&gt;AppService  -->
<g id="edge1" class="edge">
<title>AppModule&#45;&gt;AppService </title>
<path fill="none" stroke="black" stroke-dasharray="5,2" d="M793.93,-84C936.09,-84 1391,-84 1391,-84 1391,-84 1391,-132.75 1391,-132.75"/>
<polygon fill="black" stroke="black" points="1387.5,-132.75 1391,-142.75 1394.5,-132.75 1387.5,-132.75"/>
</g>
<!-- AppModule&#45;&gt;AuthModule  -->
<g id="edge2" class="edge">
<title>AppModule&#45;&gt;AuthModule </title>
<path fill="none" stroke="black" stroke-dasharray="5,2" d="M793.82,-90C919.47,-90 1285,-90 1285,-90 1285,-90 1285,-132.72 1285,-132.72"/>
<polygon fill="black" stroke="black" points="1281.5,-132.72 1285,-142.72 1288.5,-132.72 1281.5,-132.72"/>
</g>
<!-- AppModule&#45;&gt;DeviceModule  -->
<g id="edge3" class="edge">
<title>AppModule&#45;&gt;DeviceModule </title>
<path fill="none" stroke="black" stroke-dasharray="5,2" d="M793.99,-96C899.99,-96 1170,-96 1170,-96 1170,-96 1170,-132.89 1170,-132.89"/>
<polygon fill="black" stroke="black" points="1166.5,-132.89 1170,-142.89 1173.5,-132.89 1166.5,-132.89"/>
</g>
<!-- AppModule&#45;&gt;EnterpriseModule  -->
<g id="edge4" class="edge">
<title>AppModule&#45;&gt;EnterpriseModule </title>
<path fill="none" stroke="black" stroke-dasharray="5,2" d="M793.88,-102C873.75,-102 1040,-102 1040,-102 1040,-102 1040,-132.98 1040,-132.98"/>
<polygon fill="black" stroke="black" points="1036.5,-132.98 1040,-142.98 1043.5,-132.98 1036.5,-132.98"/>
</g>
<!-- AppModule&#45;&gt;EventModule  -->
<g id="edge5" class="edge">
<title>AppModule&#45;&gt;EventModule </title>
<path fill="none" stroke="black" stroke-dasharray="5,2" d="M793.72,-108C841.72,-108 914,-108 914,-108 914,-108 914,-132.76 914,-132.76"/>
<polygon fill="black" stroke="black" points="910.5,-132.76 914,-142.76 917.5,-132.76 910.5,-132.76"/>
</g>
<!-- AppModule&#45;&gt;FileModule  -->
<g id="edge6" class="edge">
<title>AppModule&#45;&gt;FileModule </title>
<path fill="none" stroke="black" stroke-dasharray="5,2" d="M778.71,-114.11C778.71,-114.11 778.71,-132.99 778.71,-132.99"/>
<polygon fill="black" stroke="black" points="775.21,-132.99 778.71,-142.99 782.21,-132.99 775.21,-132.99"/>
</g>
<!-- AppModule&#45;&gt;HookModule  -->
<g id="edge7" class="edge">
<title>AppModule&#45;&gt;HookModule </title>
<path fill="none" stroke="black" stroke-dasharray="5,2" d="M728.12,-114.11C728.12,-114.11 728.12,-132.99 728.12,-132.99"/>
<polygon fill="black" stroke="black" points="724.63,-132.99 728.12,-142.99 731.63,-132.99 724.63,-132.99"/>
</g>
<!-- AppModule&#45;&gt;MailModule  -->
<g id="edge8" class="edge">
<title>AppModule&#45;&gt;MailModule </title>
<path fill="none" stroke="black" stroke-dasharray="5,2" d="M710.02,-108C661.73,-108 589,-108 589,-108 589,-108 589,-132.76 589,-132.76"/>
<polygon fill="black" stroke="black" points="585.5,-132.76 589,-142.76 592.5,-132.76 585.5,-132.76"/>
</g>
<!-- AppModule&#45;&gt;NotificationModule  -->
<g id="edge9" class="edge">
<title>AppModule&#45;&gt;NotificationModule </title>
<path fill="none" stroke="black" stroke-dasharray="5,2" d="M710.31,-102C629.84,-102 461,-102 461,-102 461,-102 461,-132.98 461,-132.98"/>
<polygon fill="black" stroke="black" points="457.5,-132.98 461,-142.98 464.5,-132.98 457.5,-132.98"/>
</g>
<!-- AppModule&#45;&gt;SessionModule  -->
<g id="edge10" class="edge">
<title>AppModule&#45;&gt;SessionModule </title>
<path fill="none" stroke="black" stroke-dasharray="5,2" d="M710.28,-96C602.84,-96 325,-96 325,-96 325,-96 325,-132.89 325,-132.89"/>
<polygon fill="black" stroke="black" points="321.5,-132.89 325,-142.89 328.5,-132.89 321.5,-132.89"/>
</g>
<!-- AppModule&#45;&gt;UniversityModule  -->
<g id="edge11" class="edge">
<title>AppModule&#45;&gt;UniversityModule </title>
<path fill="none" stroke="black" stroke-dasharray="5,2" d="M709.98,-90C579.98,-90 193,-90 193,-90 193,-90 193,-132.72 193,-132.72"/>
<polygon fill="black" stroke="black" points="189.5,-132.72 193,-142.72 196.5,-132.72 189.5,-132.72"/>
</g>
<!-- AppModule&#45;&gt;UserModule  -->
<g id="edge12" class="edge">
<title>AppModule&#45;&gt;UserModule </title>
<path fill="none" stroke="black" stroke-dasharray="5,2" d="M710.3,-84C562.01,-84 69,-84 69,-84 69,-84 69,-132.75 69,-132.75"/>
<polygon fill="black" stroke="black" points="65.5,-132.75 69,-142.75 72.5,-132.75 65.5,-132.75"/>
</g>
</g>
</svg>
