<?xml version="1.0" encoding="UTF-8" standalone="no"?>
<!DOCTYPE svg PUBLIC "-//W3C//DTD SVG 1.1//EN"
 "http://www.w3.org/Graphics/SVG/1.1/DTD/svg11.dtd">
<!-- Generated by graphviz version 2.47.0 (20210316.0004)
 -->
<!-- Title: dependencies Pages: 1 -->
<svg width="1578pt" height="211pt"
 viewBox="0.00 0.00 1578.00 211.00" xmlns="http://www.w3.org/2000/svg" xmlns:xlink="http://www.w3.org/1999/xlink">
<g id="graph0" class="graph" transform="scale(1 1) rotate(0) translate(4 207)">
<title>dependencies</title>
<polygon fill="white" stroke="transparent" points="-4,4 -4,-207 1574,-207 1574,4 -4,4"/>
<text text-anchor="start" x="764.01" y="-42.4" font-family="Times-12" font-weight="bold" font-size="14.00">Legend</text>
<polygon fill="#ffffb3" stroke="transparent" points="551,-10 551,-30 571,-30 571,-10 551,-10"/>
<text text-anchor="start" x="574.63" y="-15.4" font-family="Times-12" font-size="14.00"> &#160;Declarations</text>
<polygon fill="#8dd3c7" stroke="transparent" points="664,-10 664,-30 684,-30 684,-10 664,-10"/>
<text text-anchor="start" x="687.73" y="-15.4" font-family="Times-12" font-size="14.00"> &#160;Module</text>
<polygon fill="#80b1d3" stroke="transparent" points="750,-10 750,-30 770,-30 770,-10 750,-10"/>
<text text-anchor="start" x="773.78" y="-15.4" font-family="Times-12" font-size="14.00"> &#160;Bootstrap</text>
<polygon fill="#fdb462" stroke="transparent" points="847,-10 847,-30 867,-30 867,-10 847,-10"/>
<text text-anchor="start" x="870.67" y="-15.4" font-family="Times-12" font-size="14.00"> &#160;Providers</text>
<polygon fill="#fb8072" stroke="transparent" points="943,-10 943,-30 963,-30 963,-10 943,-10"/>
<text text-anchor="start" x="966.73" y="-15.4" font-family="Times-12" font-size="14.00"> &#160;Exports</text>
<g id="clust1" class="cluster">
<title>cluster_AppModule</title>
<polygon fill="none" stroke="black" stroke-dasharray="1,5" points="8,-70 8,-195 1562,-195 1562,-70 8,-70"/>
</g>
<g id="clust4" class="cluster">
<title>cluster_AppModule_exports</title>
<polygon fill="none" stroke="black" points="16,-135 16,-187 1554,-187 1554,-135 16,-135"/>
</g>
<!-- AWSModule  -->
<g id="node1" class="node">
<title>AWSModule </title>
<polygon fill="#fb8072" stroke="black" points="1546.15,-179 1451.85,-179 1451.85,-143 1546.15,-143 1546.15,-179"/>
<text text-anchor="middle" x="1499" y="-156.8" font-family="Times,serif" font-size="14.00">AWSModule </text>
</g>
<!-- AppService  -->
<g id="node2" class="node">
<title>AppService </title>
<polygon fill="#fb8072" stroke="black" points="1433.59,-179 1348.41,-179 1348.41,-143 1433.59,-143 1433.59,-179"/>
<text text-anchor="middle" x="1391" y="-156.8" font-family="Times,serif" font-size="14.00">AppService </text>
</g>
<!-- AuthModule  -->
<g id="node3" class="node">
<title>AuthModule </title>
<polygon fill="#fb8072" stroke="black" points="1330.55,-179 1239.45,-179 1239.45,-143 1330.55,-143 1330.55,-179"/>
<text text-anchor="middle" x="1285" y="-156.8" font-family="Times,serif" font-size="14.00">AuthModule </text>
</g>
<!-- DeviceModule  -->
<g id="node4" class="node">
<title>DeviceModule </title>
<polygon fill="#fb8072" stroke="black" points="1221.19,-179 1118.81,-179 1118.81,-143 1221.19,-143 1221.19,-179"/>
<text text-anchor="middle" x="1170" y="-156.8" font-family="Times,serif" font-size="14.00">DeviceModule </text>
</g>
<!-- EnterpriseModule  -->
<g id="node5" class="node">
<title>EnterpriseModule </title>
<polygon fill="#fb8072" stroke="black" points="1100.08,-179 979.92,-179 979.92,-143 1100.08,-143 1100.08,-179"/>
<text text-anchor="middle" x="1040" y="-156.8" font-family="Times,serif" font-size="14.00">EnterpriseModule </text>
</g>
<!-- EventModule  -->
<g id="node6" class="node">
<title>EventModule </title>
<polygon fill="#fb8072" stroke="black" points="961.71,-179 866.29,-179 866.29,-143 961.71,-143 961.71,-179"/>
<text text-anchor="middle" x="914" y="-156.8" font-family="Times,serif" font-size="14.00">EventModule </text>
</g>
<!-- FileModule  -->
<g id="node7" class="node">
<title>FileModule </title>
<polygon fill="#fb8072" stroke="black" points="848.33,-179 763.67,-179 763.67,-143 848.33,-143 848.33,-179"/>
<text text-anchor="middle" x="806" y="-156.8" font-family="Times,serif" font-size="14.00">FileModule </text>
</g>
<!-- HookModule  -->
<g id="node8" class="node">
<title>HookModule </title>
<polygon fill="#fb8072" stroke="black" points="746.16,-179 651.84,-179 651.84,-143 746.16,-143 746.16,-179"/>
<text text-anchor="middle" x="699" y="-156.8" font-family="Times,serif" font-size="14.00">HookModule </text>
</g>
<!-- MailModule  -->
<g id="node9" class="node">
<title>MailModule </title>
<polygon fill="#fb8072" stroke="black" points="633.99,-179 544.01,-179 544.01,-143 633.99,-143 633.99,-179"/>
<text text-anchor="middle" x="589" y="-156.8" font-family="Times,serif" font-size="14.00">MailModule </text>
</g>
<!-- NotificationModule  -->
<g id="node10" class="node">
<title>NotificationModule </title>
<polygon fill="#fb8072" stroke="black" points="526.2,-179 395.8,-179 395.8,-143 526.2,-143 526.2,-179"/>
<text text-anchor="middle" x="461" y="-156.8" font-family="Times,serif" font-size="14.00">NotificationModule </text>
</g>
<!-- SessionModule  -->
<g id="node11" class="node">
<title>SessionModule </title>
<polygon fill="#fb8072" stroke="black" points="377.83,-179 272.17,-179 272.17,-143 377.83,-143 377.83,-179"/>
<text text-anchor="middle" x="325" y="-156.8" font-family="Times,serif" font-size="14.00">SessionModule </text>
</g>
<!-- UniversityModule  -->
<g id="node12" class="node">
<title>UniversityModule </title>
<polygon fill="#fb8072" stroke="black" points="254.15,-179 131.85,-179 131.85,-143 254.15,-143 254.15,-179"/>
<text text-anchor="middle" x="193" y="-156.8" font-family="Times,serif" font-size="14.00">UniversityModule </text>
</g>
<!-- UserModule  -->
<g id="node13" class="node">
<title>UserModule </title>
<polygon fill="#fb8072" stroke="black" points="113.98,-179 24.02,-179 24.02,-143 113.98,-143 113.98,-179"/>
<text text-anchor="middle" x="69" y="-156.8" font-family="Times,serif" font-size="14.00">UserModule </text>
</g>
<!-- AppModule -->
<g id="node14" class="node">
<title>AppModule</title>
<polygon fill="#8dd3c7" stroke="black" points="847.66,-114 844.66,-118 823.66,-118 820.66,-114 764.34,-114 764.34,-78 847.66,-78 847.66,-114"/>
<text text-anchor="middle" x="806" y="-91.8" font-family="Times,serif" font-size="14.00">AppModule</text>
</g>
<!-- AppModule&#45;&gt;AWSModule  -->
<g id="edge1" class="edge">
<title>AppModule&#45;&gt;AWSModule </title>
<path fill="none" stroke="black" stroke-dasharray="5,2" d="M847.79,-84C997.62,-84 1499,-84 1499,-84 1499,-84 1499,-132.75 1499,-132.75"/>
<polygon fill="black" stroke="black" points="1495.5,-132.75 1499,-142.75 1502.5,-132.75 1495.5,-132.75"/>
</g>
<!-- AppModule&#45;&gt;AppService  -->
<g id="edge2" class="edge">
<title>AppModule&#45;&gt;AppService </title>
<path fill="none" stroke="black" stroke-dasharray="5,2" d="M848.07,-89C982.21,-89 1391,-89 1391,-89 1391,-89 1391,-132.83 1391,-132.83"/>
<polygon fill="black" stroke="black" points="1387.5,-132.83 1391,-142.83 1394.5,-132.83 1387.5,-132.83"/>
</g>
<!-- AppModule&#45;&gt;AuthModule  -->
<g id="edge3" class="edge">
<title>AppModule&#45;&gt;AuthModule </title>
<path fill="none" stroke="black" stroke-dasharray="5,2" d="M847.67,-94C964.21,-94 1285,-94 1285,-94 1285,-94 1285,-132.69 1285,-132.69"/>
<polygon fill="black" stroke="black" points="1281.5,-132.69 1285,-142.69 1288.5,-132.69 1281.5,-132.69"/>
</g>
<!-- AppModule&#45;&gt;DeviceModule  -->
<g id="edge4" class="edge">
<title>AppModule&#45;&gt;DeviceModule </title>
<path fill="none" stroke="black" stroke-dasharray="5,2" d="M847.76,-99C943.37,-99 1170,-99 1170,-99 1170,-99 1170,-132.73 1170,-132.73"/>
<polygon fill="black" stroke="black" points="1166.5,-132.73 1170,-142.73 1173.5,-132.73 1166.5,-132.73"/>
</g>
<!-- AppModule&#45;&gt;EnterpriseModule  -->
<g id="edge5" class="edge">
<title>AppModule&#45;&gt;EnterpriseModule </title>
<path fill="none" stroke="black" stroke-dasharray="5,2" d="M847.83,-104C915.14,-104 1040,-104 1040,-104 1040,-104 1040,-132.96 1040,-132.96"/>
<polygon fill="black" stroke="black" points="1036.5,-132.96 1040,-142.96 1043.5,-132.96 1036.5,-132.96"/>
</g>
<!-- AppModule&#45;&gt;EventModule  -->
<g id="edge6" class="edge">
<title>AppModule&#45;&gt;EventModule </title>
<path fill="none" stroke="black" stroke-dasharray="5,2" d="M847.76,-109C878.15,-109 914,-109 914,-109 914,-109 914,-132.81 914,-132.81"/>
<polygon fill="black" stroke="black" points="910.5,-132.81 914,-142.81 917.5,-132.81 910.5,-132.81"/>
</g>
<!-- AppModule&#45;&gt;FileModule  -->
<g id="edge7" class="edge">
<title>AppModule&#45;&gt;FileModule </title>
<path fill="none" stroke="black" stroke-dasharray="5,2" d="M806,-114.11C806,-114.11 806,-132.99 806,-132.99"/>
<polygon fill="black" stroke="black" points="802.5,-132.99 806,-142.99 809.5,-132.99 802.5,-132.99"/>
</g>
<!-- AppModule&#45;&gt;HookModule  -->
<g id="edge8" class="edge">
<title>AppModule&#45;&gt;HookModule </title>
<path fill="none" stroke="black" stroke-dasharray="5,2" d="M764.32,-109C734.28,-109 699,-109 699,-109 699,-109 699,-132.81 699,-132.81"/>
<polygon fill="black" stroke="black" points="695.5,-132.81 699,-142.81 702.5,-132.81 695.5,-132.81"/>
</g>
<!-- AppModule&#45;&gt;MailModule  -->
<g id="edge9" class="edge">
<title>AppModule&#45;&gt;MailModule </title>
<path fill="none" stroke="black" stroke-dasharray="5,2" d="M764.16,-104C701.1,-104 589,-104 589,-104 589,-104 589,-132.96 589,-132.96"/>
<polygon fill="black" stroke="black" points="585.5,-132.96 589,-142.96 592.5,-132.96 585.5,-132.96"/>
</g>
<!-- AppModule&#45;&gt;NotificationModule  -->
<g id="edge10" class="edge">
<title>AppModule&#45;&gt;NotificationModule </title>
<path fill="none" stroke="black" stroke-dasharray="5,2" d="M764.04,-99C672.1,-99 461,-99 461,-99 461,-99 461,-132.73 461,-132.73"/>
<polygon fill="black" stroke="black" points="457.5,-132.73 461,-142.73 464.5,-132.73 457.5,-132.73"/>
</g>
<!-- AppModule&#45;&gt;SessionModule  -->
<g id="edge11" class="edge">
<title>AppModule&#45;&gt;SessionModule </title>
<path fill="none" stroke="black" stroke-dasharray="5,2" d="M764.16,-94C647.13,-94 325,-94 325,-94 325,-94 325,-132.69 325,-132.69"/>
<polygon fill="black" stroke="black" points="321.5,-132.69 325,-142.69 328.5,-132.69 321.5,-132.69"/>
</g>
<!-- AppModule&#45;&gt;UniversityModule  -->
<g id="edge12" class="edge">
<title>AppModule&#45;&gt;UniversityModule </title>
<path fill="none" stroke="black" stroke-dasharray="5,2" d="M763.87,-89C625.37,-89 193,-89 193,-89 193,-89 193,-132.83 193,-132.83"/>
<polygon fill="black" stroke="black" points="189.5,-132.83 193,-142.83 196.5,-132.83 189.5,-132.83"/>
</g>
<!-- AppModule&#45;&gt;UserModule  -->
<g id="edge13" class="edge">
<title>AppModule&#45;&gt;UserModule </title>
<path fill="none" stroke="black" stroke-dasharray="5,2" d="M764.26,-84C608.36,-84 69,-84 69,-84 69,-84 69,-132.75 69,-132.75"/>
<polygon fill="black" stroke="black" points="65.5,-132.75 69,-142.75 72.5,-132.75 65.5,-132.75"/>
</g>
</g>
</svg>
