<?xml version="1.0" encoding="UTF-8" standalone="no"?>
<!DOCTYPE svg PUBLIC "-//W3C//DTD SVG 1.1//EN"
 "http://www.w3.org/Graphics/SVG/1.1/DTD/svg11.dtd">
<!-- Generated by graphviz version 2.47.0 (20210316.0004)
 -->
<!-- Title: dependencies Pages: 1 -->
<svg width="504pt" height="211pt"
 viewBox="0.00 0.00 504.00 211.00" xmlns="http://www.w3.org/2000/svg" xmlns:xlink="http://www.w3.org/1999/xlink">
<g id="graph0" class="graph" transform="scale(1 1) rotate(0) translate(4 207)">
<title>dependencies</title>
<polygon fill="white" stroke="transparent" points="-4,4 -4,-207 500,-207 500,4 -4,4"/>
<text text-anchor="start" x="227.01" y="-42.4" font-family="Times-12" font-weight="bold" font-size="14.00">Legend</text>
<polygon fill="#ffffb3" stroke="transparent" points="14,-10 14,-30 34,-30 34,-10 14,-10"/>
<text text-anchor="start" x="37.63" y="-15.4" font-family="Times-12" font-size="14.00"> &#160;Declarations</text>
<polygon fill="#8dd3c7" stroke="transparent" points="127,-10 127,-30 147,-30 147,-10 127,-10"/>
<text text-anchor="start" x="150.73" y="-15.4" font-family="Times-12" font-size="14.00"> &#160;Module</text>
<polygon fill="#80b1d3" stroke="transparent" points="213,-10 213,-30 233,-30 233,-10 213,-10"/>
<text text-anchor="start" x="236.78" y="-15.4" font-family="Times-12" font-size="14.00"> &#160;Bootstrap</text>
<polygon fill="#fdb462" stroke="transparent" points="310,-10 310,-30 330,-30 330,-10 310,-10"/>
<text text-anchor="start" x="333.67" y="-15.4" font-family="Times-12" font-size="14.00"> &#160;Providers</text>
<polygon fill="#fb8072" stroke="transparent" points="406,-10 406,-30 426,-30 426,-10 406,-10"/>
<text text-anchor="start" x="429.73" y="-15.4" font-family="Times-12" font-size="14.00"> &#160;Exports</text>
<g id="clust1" class="cluster">
<title>cluster_MainModule</title>
<polygon fill="none" stroke="black" stroke-dasharray="1,5" points="150,-70 150,-195 346,-195 346,-70 150,-70"/>
</g>
<g id="clust3" class="cluster">
<title>cluster_MainModule_imports</title>
<polygon fill="none" stroke="black" points="158,-78 158,-130 338,-130 338,-78 158,-78"/>
</g>
<!-- AppModule -->
<g id="node1" class="node">
<title>AppModule</title>
<polygon fill="#8dd3c7" stroke="black" points="329.66,-122 326.66,-126 305.66,-126 302.66,-122 246.34,-122 246.34,-86 329.66,-86 329.66,-122"/>
<text text-anchor="middle" x="288" y="-99.8" font-family="Times,serif" font-size="14.00">AppModule</text>
</g>
<!-- MainModule -->
<g id="node3" class="node">
<title>MainModule</title>
<polygon fill="#8dd3c7" stroke="black" points="289.6,-187 286.6,-191 265.6,-191 262.6,-187 200.4,-187 200.4,-151 289.6,-151 289.6,-187"/>
<text text-anchor="middle" x="245" y="-164.8" font-family="Times,serif" font-size="14.00">MainModule</text>
</g>
<!-- AppModule&#45;&gt;MainModule -->
<g id="edge1" class="edge">
<title>AppModule&#45;&gt;MainModule</title>
<path fill="none" stroke="black" d="M267.86,-122.11C267.86,-122.11 267.86,-140.99 267.86,-140.99"/>
<polygon fill="black" stroke="black" points="264.36,-140.99 267.86,-150.99 271.36,-140.99 264.36,-140.99"/>
</g>
<!-- loadEnv -->
<g id="node2" class="node">
<title>loadEnv</title>
<polygon fill="#8dd3c7" stroke="black" points="228.16,-122 225.16,-126 204.16,-126 201.16,-122 165.84,-122 165.84,-86 228.16,-86 228.16,-122"/>
<text text-anchor="middle" x="197" y="-99.8" font-family="Times,serif" font-size="14.00">loadEnv</text>
</g>
<!-- loadEnv&#45;&gt;MainModule -->
<g id="edge2" class="edge">
<title>loadEnv&#45;&gt;MainModule</title>
<path fill="none" stroke="black" d="M214.39,-122.11C214.39,-122.11 214.39,-140.99 214.39,-140.99"/>
<polygon fill="black" stroke="black" points="210.89,-140.99 214.39,-150.99 217.89,-140.99 210.89,-140.99"/>
</g>
</g>
</svg>
