<?xml version="1.0" encoding="UTF-8" standalone="no"?>
<!DOCTYPE svg PUBLIC "-//W3C//DTD SVG 1.1//EN"
 "http://www.w3.org/Graphics/SVG/1.1/DTD/svg11.dtd">
<!-- Generated by graphviz version 2.47.0 (20210316.0004)
 -->
<!-- Title: dependencies Pages: 1 -->
<svg width="1119pt" height="284pt"
 viewBox="0.00 0.00 1119.00 284.00" xmlns="http://www.w3.org/2000/svg" xmlns:xlink="http://www.w3.org/1999/xlink">
<g id="graph0" class="graph" transform="scale(1 1) rotate(0) translate(4 280)">
<title>dependencies</title>
<polygon fill="white" stroke="transparent" points="-4,4 -4,-280 1115,-280 1115,4 -4,4"/>
<text text-anchor="start" x="534.51" y="-42.4" font-family="Times-12" font-weight="bold" font-size="14.00">Legend</text>
<polygon fill="#ffffb3" stroke="transparent" points="321.5,-10 321.5,-30 341.5,-30 341.5,-10 321.5,-10"/>
<text text-anchor="start" x="345.13" y="-15.4" font-family="Times-12" font-size="14.00"> &#160;Declarations</text>
<polygon fill="#8dd3c7" stroke="transparent" points="434.5,-10 434.5,-30 454.5,-30 454.5,-10 434.5,-10"/>
<text text-anchor="start" x="458.23" y="-15.4" font-family="Times-12" font-size="14.00"> &#160;Module</text>
<polygon fill="#80b1d3" stroke="transparent" points="520.5,-10 520.5,-30 540.5,-30 540.5,-10 520.5,-10"/>
<text text-anchor="start" x="544.28" y="-15.4" font-family="Times-12" font-size="14.00"> &#160;Bootstrap</text>
<polygon fill="#fdb462" stroke="transparent" points="617.5,-10 617.5,-30 637.5,-30 637.5,-10 617.5,-10"/>
<text text-anchor="start" x="641.17" y="-15.4" font-family="Times-12" font-size="14.00"> &#160;Providers</text>
<polygon fill="#fb8072" stroke="transparent" points="713.5,-10 713.5,-30 733.5,-30 733.5,-10 713.5,-10"/>
<text text-anchor="start" x="737.23" y="-15.4" font-family="Times-12" font-size="14.00"> &#160;Exports</text>
<g id="clust1" class="cluster">
<title>cluster_AuthModule</title>
<polygon fill="none" stroke="black" stroke-dasharray="1,5" points="8,-70 8,-268 1103,-268 1103,-70 8,-70"/>
</g>
<g id="clust6" class="cluster">
<title>cluster_AuthModule_providers</title>
<polygon fill="none" stroke="black" points="230,-78 230,-130 1095,-130 1095,-78 230,-78"/>
</g>
<g id="clust3" class="cluster">
<title>cluster_AuthModule_imports</title>
<polygon fill="none" stroke="black" points="16,-78 16,-130 222,-130 222,-78 16,-78"/>
</g>
<g id="clust4" class="cluster">
<title>cluster_AuthModule_exports</title>
<polygon fill="none" stroke="black" points="392,-208 392,-260 603,-260 603,-208 392,-208"/>
</g>
<!-- FileModule -->
<g id="node1" class="node">
<title>FileModule</title>
<polygon fill="#8dd3c7" stroke="black" points="213.83,-122 210.83,-126 189.83,-126 186.83,-122 132.17,-122 132.17,-86 213.83,-86 213.83,-122"/>
<text text-anchor="middle" x="173" y="-99.8" font-family="Times,serif" font-size="14.00">FileModule</text>
</g>
<!-- AuthModule -->
<g id="node3" class="node">
<title>AuthModule</title>
<polygon fill="#8dd3c7" stroke="black" points="540.55,-187 537.55,-191 516.55,-191 513.55,-187 453.45,-187 453.45,-151 540.55,-151 540.55,-187"/>
<text text-anchor="middle" x="497" y="-164.8" font-family="Times,serif" font-size="14.00">AuthModule</text>
</g>
<!-- FileModule&#45;&gt;AuthModule -->
<g id="edge1" class="edge">
<title>FileModule&#45;&gt;AuthModule</title>
<path fill="none" stroke="black" d="M173,-122.11C173,-141.34 173,-169 173,-169 173,-169 443.3,-169 443.3,-169"/>
<polygon fill="black" stroke="black" points="443.3,-172.5 453.3,-169 443.3,-165.5 443.3,-172.5"/>
</g>
<!-- HookModule -->
<g id="node2" class="node">
<title>HookModule</title>
<polygon fill="#8dd3c7" stroke="black" points="114.16,-122 111.16,-126 90.16,-126 87.16,-122 23.84,-122 23.84,-86 114.16,-86 114.16,-122"/>
<text text-anchor="middle" x="69" y="-99.8" font-family="Times,serif" font-size="14.00">HookModule</text>
</g>
<!-- HookModule&#45;&gt;AuthModule -->
<g id="edge2" class="edge">
<title>HookModule&#45;&gt;AuthModule</title>
<path fill="none" stroke="black" d="M69,-122.29C69,-144.21 69,-178 69,-178 69,-178 443.21,-178 443.21,-178"/>
<polygon fill="black" stroke="black" points="443.21,-181.5 453.21,-178 443.21,-174.5 443.21,-181.5"/>
</g>
<!-- AuthService  -->
<g id="node4" class="node">
<title>AuthService </title>
<polygon fill="#fb8072" stroke="black" points="594.98,-252 505.02,-252 505.02,-216 594.98,-216 594.98,-252"/>
<text text-anchor="middle" x="550" y="-229.8" font-family="Times,serif" font-size="14.00">AuthService </text>
</g>
<!-- AuthModule&#45;&gt;AuthService  -->
<g id="edge3" class="edge">
<title>AuthModule&#45;&gt;AuthService </title>
<path fill="none" stroke="black" stroke-dasharray="5,2" d="M523.02,-187.11C523.02,-187.11 523.02,-205.99 523.02,-205.99"/>
<polygon fill="black" stroke="black" points="519.52,-205.99 523.02,-215.99 526.52,-205.99 519.52,-205.99"/>
</g>
<!-- SignService  -->
<g id="node5" class="node">
<title>SignService </title>
<polygon fill="#fb8072" stroke="black" points="487.65,-252 400.35,-252 400.35,-216 487.65,-216 487.65,-252"/>
<text text-anchor="middle" x="444" y="-229.8" font-family="Times,serif" font-size="14.00">SignService </text>
</g>
<!-- AuthModule&#45;&gt;SignService  -->
<g id="edge4" class="edge">
<title>AuthModule&#45;&gt;SignService </title>
<path fill="none" stroke="black" stroke-dasharray="5,2" d="M470.4,-187.11C470.4,-187.11 470.4,-205.99 470.4,-205.99"/>
<polygon fill="black" stroke="black" points="466.9,-205.99 470.4,-215.99 473.9,-205.99 466.9,-205.99"/>
</g>
<!-- AccessStrategy -->
<g id="node6" class="node">
<title>AccessStrategy</title>
<ellipse fill="#fdb462" stroke="black" cx="1016" cy="-104" rx="70.62" ry="18"/>
<text text-anchor="middle" x="1016" y="-99.8" font-family="Times,serif" font-size="14.00">AccessStrategy</text>
</g>
<!-- AccessStrategy&#45;&gt;AuthModule -->
<g id="edge5" class="edge">
<title>AccessStrategy&#45;&gt;AuthModule</title>
<path fill="none" stroke="black" d="M1016,-122.29C1016,-144.21 1016,-178 1016,-178 1016,-178 550.8,-178 550.8,-178"/>
<polygon fill="black" stroke="black" points="550.8,-174.5 540.8,-178 550.8,-181.5 550.8,-174.5"/>
</g>
<!-- AuthService -->
<g id="node7" class="node">
<title>AuthService</title>
<ellipse fill="#fdb462" stroke="black" cx="868" cy="-104" rx="59.11" ry="18"/>
<text text-anchor="middle" x="868" y="-99.8" font-family="Times,serif" font-size="14.00">AuthService</text>
</g>
<!-- AuthService&#45;&gt;AuthModule -->
<g id="edge6" class="edge">
<title>AuthService&#45;&gt;AuthModule</title>
<path fill="none" stroke="black" d="M868,-122.11C868,-141.34 868,-169 868,-169 868,-169 550.65,-169 550.65,-169"/>
<polygon fill="black" stroke="black" points="550.65,-165.5 540.65,-169 550.65,-172.5 550.65,-165.5"/>
</g>
<!-- HookStrategy -->
<g id="node8" class="node">
<title>HookStrategy</title>
<ellipse fill="#fdb462" stroke="black" cx="726" cy="-104" rx="64.85" ry="18"/>
<text text-anchor="middle" x="726" y="-99.8" font-family="Times,serif" font-size="14.00">HookStrategy</text>
</g>
<!-- HookStrategy&#45;&gt;AuthModule -->
<g id="edge7" class="edge">
<title>HookStrategy&#45;&gt;AuthModule</title>
<path fill="none" stroke="black" d="M726,-122.03C726,-138.4 726,-160 726,-160 726,-160 550.61,-160 550.61,-160"/>
<polygon fill="black" stroke="black" points="550.61,-156.5 540.61,-160 550.61,-163.5 550.61,-156.5"/>
</g>
<!-- RefreshStrategy -->
<g id="node9" class="node">
<title>RefreshStrategy</title>
<ellipse fill="#fdb462" stroke="black" cx="570" cy="-104" rx="73.49" ry="18"/>
<text text-anchor="middle" x="570" y="-99.8" font-family="Times,serif" font-size="14.00">RefreshStrategy</text>
</g>
<!-- RefreshStrategy&#45;&gt;AuthModule -->
<g id="edge8" class="edge">
<title>RefreshStrategy&#45;&gt;AuthModule</title>
<path fill="none" stroke="black" d="M518.76,-117.15C518.76,-117.15 518.76,-140.69 518.76,-140.69"/>
<polygon fill="black" stroke="black" points="515.26,-140.69 518.76,-150.69 522.26,-140.69 515.26,-140.69"/>
</g>
<!-- RoleGuard -->
<g id="node10" class="node">
<title>RoleGuard</title>
<ellipse fill="#fdb462" stroke="black" cx="425" cy="-104" rx="53.31" ry="18"/>
<text text-anchor="middle" x="425" y="-99.8" font-family="Times,serif" font-size="14.00">RoleGuard</text>
</g>
<!-- RoleGuard&#45;&gt;AuthModule -->
<g id="edge9" class="edge">
<title>RoleGuard&#45;&gt;AuthModule</title>
<path fill="none" stroke="black" d="M465.82,-115.62C465.82,-115.62 465.82,-140.85 465.82,-140.85"/>
<polygon fill="black" stroke="black" points="462.32,-140.85 465.82,-150.85 469.32,-140.85 462.32,-140.85"/>
</g>
<!-- SignService -->
<g id="node11" class="node">
<title>SignService</title>
<ellipse fill="#fdb462" stroke="black" cx="296" cy="-104" rx="57.9" ry="18"/>
<text text-anchor="middle" x="296" y="-99.8" font-family="Times,serif" font-size="14.00">SignService</text>
</g>
<!-- SignService&#45;&gt;AuthModule -->
<g id="edge10" class="edge">
<title>SignService&#45;&gt;AuthModule</title>
<path fill="none" stroke="black" d="M296,-122.03C296,-138.4 296,-160 296,-160 296,-160 443.39,-160 443.39,-160"/>
<polygon fill="black" stroke="black" points="443.39,-163.5 453.39,-160 443.39,-156.5 443.39,-163.5"/>
</g>
</g>
</svg>
