<?xml version="1.0" encoding="UTF-8" standalone="no"?>
<!DOCTYPE svg PUBLIC "-//W3C//DTD SVG 1.1//EN"
 "http://www.w3.org/Graphics/SVG/1.1/DTD/svg11.dtd">
<!-- Generated by graphviz version 2.47.0 (20210316.0004)
 -->
<!-- Title: dependencies Pages: 1 -->
<svg width="905pt" height="284pt"
 viewBox="0.00 0.00 905.00 284.00" xmlns="http://www.w3.org/2000/svg" xmlns:xlink="http://www.w3.org/1999/xlink">
<g id="graph0" class="graph" transform="scale(1 1) rotate(0) translate(4 280)">
<title>dependencies</title>
<polygon fill="white" stroke="transparent" points="-4,4 -4,-280 901,-280 901,4 -4,4"/>
<text text-anchor="start" x="427.51" y="-42.4" font-family="Times-12" font-weight="bold" font-size="14.00">Legend</text>
<polygon fill="#ffffb3" stroke="transparent" points="214.5,-10 214.5,-30 234.5,-30 234.5,-10 214.5,-10"/>
<text text-anchor="start" x="238.13" y="-15.4" font-family="Times-12" font-size="14.00"> &#160;Declarations</text>
<polygon fill="#8dd3c7" stroke="transparent" points="327.5,-10 327.5,-30 347.5,-30 347.5,-10 327.5,-10"/>
<text text-anchor="start" x="351.23" y="-15.4" font-family="Times-12" font-size="14.00"> &#160;Module</text>
<polygon fill="#80b1d3" stroke="transparent" points="413.5,-10 413.5,-30 433.5,-30 433.5,-10 413.5,-10"/>
<text text-anchor="start" x="437.28" y="-15.4" font-family="Times-12" font-size="14.00"> &#160;Bootstrap</text>
<polygon fill="#fdb462" stroke="transparent" points="510.5,-10 510.5,-30 530.5,-30 530.5,-10 510.5,-10"/>
<text text-anchor="start" x="534.17" y="-15.4" font-family="Times-12" font-size="14.00"> &#160;Providers</text>
<polygon fill="#fb8072" stroke="transparent" points="606.5,-10 606.5,-30 626.5,-30 626.5,-10 606.5,-10"/>
<text text-anchor="start" x="630.23" y="-15.4" font-family="Times-12" font-size="14.00"> &#160;Exports</text>
<g id="clust1" class="cluster">
<title>cluster_AuthModule</title>
<polygon fill="none" stroke="black" stroke-dasharray="1,5" points="8,-70 8,-268 889,-268 889,-70 8,-70"/>
</g>
<g id="clust6" class="cluster">
<title>cluster_AuthModule_providers</title>
<polygon fill="none" stroke="black" points="16,-78 16,-130 881,-130 881,-78 16,-78"/>
</g>
<g id="clust4" class="cluster">
<title>cluster_AuthModule_exports</title>
<polygon fill="none" stroke="black" points="329,-208 329,-260 540,-260 540,-208 329,-208"/>
</g>
<!-- AuthService  -->
<g id="node1" class="node">
<title>AuthService </title>
<polygon fill="#fb8072" stroke="black" points="531.98,-252 442.02,-252 442.02,-216 531.98,-216 531.98,-252"/>
<text text-anchor="middle" x="487" y="-229.8" font-family="Times,serif" font-size="14.00">AuthService </text>
</g>
<!-- SignService  -->
<g id="node2" class="node">
<title>SignService </title>
<polygon fill="#fb8072" stroke="black" points="424.65,-252 337.35,-252 337.35,-216 424.65,-216 424.65,-252"/>
<text text-anchor="middle" x="381" y="-229.8" font-family="Times,serif" font-size="14.00">SignService </text>
</g>
<!-- AuthModule -->
<g id="node3" class="node">
<title>AuthModule</title>
<polygon fill="#8dd3c7" stroke="black" points="477.55,-187 474.55,-191 453.55,-191 450.55,-187 390.45,-187 390.45,-151 477.55,-151 477.55,-187"/>
<text text-anchor="middle" x="434" y="-164.8" font-family="Times,serif" font-size="14.00">AuthModule</text>
</g>
<!-- AuthModule&#45;&gt;AuthService  -->
<g id="edge1" class="edge">
<title>AuthModule&#45;&gt;AuthService </title>
<path fill="none" stroke="black" stroke-dasharray="5,2" d="M460.02,-187.11C460.02,-187.11 460.02,-205.99 460.02,-205.99"/>
<polygon fill="black" stroke="black" points="456.52,-205.99 460.02,-215.99 463.52,-205.99 456.52,-205.99"/>
</g>
<!-- AuthModule&#45;&gt;SignService  -->
<g id="edge2" class="edge">
<title>AuthModule&#45;&gt;SignService </title>
<path fill="none" stroke="black" stroke-dasharray="5,2" d="M407.4,-187.11C407.4,-187.11 407.4,-205.99 407.4,-205.99"/>
<polygon fill="black" stroke="black" points="403.9,-205.99 407.4,-215.99 410.9,-205.99 403.9,-205.99"/>
</g>
<!-- AccessStrategy -->
<g id="node4" class="node">
<title>AccessStrategy</title>
<ellipse fill="#fdb462" stroke="black" cx="802" cy="-104" rx="70.62" ry="18"/>
<text text-anchor="middle" x="802" y="-99.8" font-family="Times,serif" font-size="14.00">AccessStrategy</text>
</g>
<!-- AccessStrategy&#45;&gt;AuthModule -->
<g id="edge3" class="edge">
<title>AccessStrategy&#45;&gt;AuthModule</title>
<path fill="none" stroke="black" d="M802,-122.28C802,-143.32 802,-175 802,-175 802,-175 487.66,-175 487.66,-175"/>
<polygon fill="black" stroke="black" points="487.66,-171.5 477.66,-175 487.66,-178.5 487.66,-171.5"/>
</g>
<!-- AuthService -->
<g id="node5" class="node">
<title>AuthService</title>
<ellipse fill="#fdb462" stroke="black" cx="654" cy="-104" rx="59.11" ry="18"/>
<text text-anchor="middle" x="654" y="-99.8" font-family="Times,serif" font-size="14.00">AuthService</text>
</g>
<!-- AuthService&#45;&gt;AuthModule -->
<g id="edge4" class="edge">
<title>AuthService&#45;&gt;AuthModule</title>
<path fill="none" stroke="black" d="M654,-122.02C654,-139.37 654,-163 654,-163 654,-163 487.73,-163 487.73,-163"/>
<polygon fill="black" stroke="black" points="487.73,-159.5 477.73,-163 487.73,-166.5 487.73,-159.5"/>
</g>
<!-- HookStrategy -->
<g id="node6" class="node">
<title>HookStrategy</title>
<ellipse fill="#fdb462" stroke="black" cx="512" cy="-104" rx="64.85" ry="18"/>
<text text-anchor="middle" x="512" y="-99.8" font-family="Times,serif" font-size="14.00">HookStrategy</text>
</g>
<!-- HookStrategy&#45;&gt;AuthModule -->
<g id="edge5" class="edge">
<title>HookStrategy&#45;&gt;AuthModule</title>
<path fill="none" stroke="black" d="M462.55,-115.62C462.55,-115.62 462.55,-140.85 462.55,-140.85"/>
<polygon fill="black" stroke="black" points="459.05,-140.85 462.55,-150.85 466.05,-140.85 459.05,-140.85"/>
</g>
<!-- RefreshStrategy -->
<g id="node7" class="node">
<title>RefreshStrategy</title>
<ellipse fill="#fdb462" stroke="black" cx="356" cy="-104" rx="73.49" ry="18"/>
<text text-anchor="middle" x="356" y="-99.8" font-family="Times,serif" font-size="14.00">RefreshStrategy</text>
</g>
<!-- RefreshStrategy&#45;&gt;AuthModule -->
<g id="edge6" class="edge">
<title>RefreshStrategy&#45;&gt;AuthModule</title>
<path fill="none" stroke="black" d="M409.74,-116.53C409.74,-116.53 409.74,-140.85 409.74,-140.85"/>
<polygon fill="black" stroke="black" points="406.24,-140.85 409.74,-150.85 413.24,-140.85 406.24,-140.85"/>
</g>
<!-- RoleGuard -->
<g id="node8" class="node">
<title>RoleGuard</title>
<ellipse fill="#fdb462" stroke="black" cx="211" cy="-104" rx="53.31" ry="18"/>
<text text-anchor="middle" x="211" y="-99.8" font-family="Times,serif" font-size="14.00">RoleGuard</text>
</g>
<!-- RoleGuard&#45;&gt;AuthModule -->
<g id="edge7" class="edge">
<title>RoleGuard&#45;&gt;AuthModule</title>
<path fill="none" stroke="black" d="M211,-122.02C211,-139.37 211,-163 211,-163 211,-163 380.21,-163 380.21,-163"/>
<polygon fill="black" stroke="black" points="380.21,-166.5 390.21,-163 380.21,-159.5 380.21,-166.5"/>
</g>
<!-- SignService -->
<g id="node9" class="node">
<title>SignService</title>
<ellipse fill="#fdb462" stroke="black" cx="82" cy="-104" rx="57.9" ry="18"/>
<text text-anchor="middle" x="82" y="-99.8" font-family="Times,serif" font-size="14.00">SignService</text>
</g>
<!-- SignService&#45;&gt;AuthModule -->
<g id="edge8" class="edge">
<title>SignService&#45;&gt;AuthModule</title>
<path fill="none" stroke="black" d="M82,-122.28C82,-143.32 82,-175 82,-175 82,-175 380.13,-175 380.13,-175"/>
<polygon fill="black" stroke="black" points="380.13,-178.5 390.13,-175 380.13,-171.5 380.13,-178.5"/>
</g>
</g>
</svg>
