<?xml version="1.0" encoding="UTF-8" standalone="no"?>
<!DOCTYPE svg PUBLIC "-//W3C//DTD SVG 1.1//EN"
 "http://www.w3.org/Graphics/SVG/1.1/DTD/svg11.dtd">
<!-- Generated by graphviz version 2.47.0 (20210316.0004)
 -->
<!-- Title: dependencies Pages: 1 -->
<svg width="504pt" height="211pt"
 viewBox="0.00 0.00 504.00 211.00" xmlns="http://www.w3.org/2000/svg" xmlns:xlink="http://www.w3.org/1999/xlink">
<g id="graph0" class="graph" transform="scale(1 1) rotate(0) translate(4 207)">
<title>dependencies</title>
<polygon fill="white" stroke="transparent" points="-4,4 -4,-207 500,-207 500,4 -4,4"/>
<text text-anchor="start" x="227.01" y="-42.4" font-family="Times-12" font-weight="bold" font-size="14.00">Legend</text>
<polygon fill="#ffffb3" stroke="transparent" points="14,-10 14,-30 34,-30 34,-10 14,-10"/>
<text text-anchor="start" x="37.63" y="-15.4" font-family="Times-12" font-size="14.00"> &#160;Declarations</text>
<polygon fill="#8dd3c7" stroke="transparent" points="127,-10 127,-30 147,-30 147,-10 127,-10"/>
<text text-anchor="start" x="150.73" y="-15.4" font-family="Times-12" font-size="14.00"> &#160;Module</text>
<polygon fill="#80b1d3" stroke="transparent" points="213,-10 213,-30 233,-30 233,-10 213,-10"/>
<text text-anchor="start" x="236.78" y="-15.4" font-family="Times-12" font-size="14.00"> &#160;Bootstrap</text>
<polygon fill="#fdb462" stroke="transparent" points="310,-10 310,-30 330,-30 330,-10 310,-10"/>
<text text-anchor="start" x="333.67" y="-15.4" font-family="Times-12" font-size="14.00"> &#160;Providers</text>
<polygon fill="#fb8072" stroke="transparent" points="406,-10 406,-30 426,-30 426,-10 406,-10"/>
<text text-anchor="start" x="429.73" y="-15.4" font-family="Times-12" font-size="14.00"> &#160;Exports</text>
<g id="clust1" class="cluster">
<title>cluster_TestModule</title>
<polygon fill="none" stroke="black" stroke-dasharray="1,5" points="131,-70 131,-195 365,-195 365,-70 131,-70"/>
</g>
<g id="clust3" class="cluster">
<title>cluster_TestModule_imports</title>
<polygon fill="none" stroke="black" points="279,-78 279,-130 357,-130 357,-78 279,-78"/>
</g>
<g id="clust6" class="cluster">
<title>cluster_TestModule_providers</title>
<polygon fill="none" stroke="black" points="139,-78 139,-130 271,-130 271,-78 139,-78"/>
</g>
<!-- loadEnv -->
<g id="node1" class="node">
<title>loadEnv</title>
<polygon fill="#8dd3c7" stroke="black" points="349.16,-122 346.16,-126 325.16,-126 322.16,-122 286.84,-122 286.84,-86 349.16,-86 349.16,-122"/>
<text text-anchor="middle" x="318" y="-99.8" font-family="Times,serif" font-size="14.00">loadEnv</text>
</g>
<!-- TestModule -->
<g id="node2" class="node">
<title>TestModule</title>
<polygon fill="#8dd3c7" stroke="black" points="301.65,-187 298.65,-191 277.65,-191 274.65,-187 218.35,-187 218.35,-151 301.65,-151 301.65,-187"/>
<text text-anchor="middle" x="260" y="-164.8" font-family="Times,serif" font-size="14.00">TestModule</text>
</g>
<!-- loadEnv&#45;&gt;TestModule -->
<g id="edge1" class="edge">
<title>loadEnv&#45;&gt;TestModule</title>
<path fill="none" stroke="black" d="M294.25,-122.11C294.25,-122.11 294.25,-140.99 294.25,-140.99"/>
<polygon fill="black" stroke="black" points="290.75,-140.99 294.25,-150.99 297.75,-140.99 290.75,-140.99"/>
</g>
<!-- SignService -->
<g id="node3" class="node">
<title>SignService</title>
<ellipse fill="#fdb462" stroke="black" cx="205" cy="-104" rx="57.9" ry="18"/>
<text text-anchor="middle" x="205" y="-99.8" font-family="Times,serif" font-size="14.00">SignService</text>
</g>
<!-- SignService&#45;&gt;TestModule -->
<g id="edge2" class="edge">
<title>SignService&#45;&gt;TestModule</title>
<path fill="none" stroke="black" d="M240.44,-118.43C240.44,-118.43 240.44,-140.89 240.44,-140.89"/>
<polygon fill="black" stroke="black" points="236.94,-140.89 240.44,-150.89 243.94,-140.89 236.94,-140.89"/>
</g>
</g>
</svg>
