<?xml version="1.0" encoding="UTF-8" standalone="no"?>
<!DOCTYPE svg PUBLIC "-//W3C//DTD SVG 1.1//EN"
 "http://www.w3.org/Graphics/SVG/1.1/DTD/svg11.dtd">
<!-- Generated by graphviz version 2.47.0 (20210316.0004)
 -->
<!-- Title: dependencies Pages: 1 -->
<svg width="504pt" height="284pt"
 viewBox="0.00 0.00 504.00 284.00" xmlns="http://www.w3.org/2000/svg" xmlns:xlink="http://www.w3.org/1999/xlink">
<g id="graph0" class="graph" transform="scale(1 1) rotate(0) translate(4 280)">
<title>dependencies</title>
<polygon fill="white" stroke="transparent" points="-4,4 -4,-280 500,-280 500,4 -4,4"/>
<text text-anchor="start" x="227.01" y="-42.4" font-family="Times-12" font-weight="bold" font-size="14.00">Legend</text>
<polygon fill="#ffffb3" stroke="transparent" points="14,-10 14,-30 34,-30 34,-10 14,-10"/>
<text text-anchor="start" x="37.63" y="-15.4" font-family="Times-12" font-size="14.00"> &#160;Declarations</text>
<polygon fill="#8dd3c7" stroke="transparent" points="127,-10 127,-30 147,-30 147,-10 127,-10"/>
<text text-anchor="start" x="150.73" y="-15.4" font-family="Times-12" font-size="14.00"> &#160;Module</text>
<polygon fill="#80b1d3" stroke="transparent" points="213,-10 213,-30 233,-30 233,-10 213,-10"/>
<text text-anchor="start" x="236.78" y="-15.4" font-family="Times-12" font-size="14.00"> &#160;Bootstrap</text>
<polygon fill="#fdb462" stroke="transparent" points="310,-10 310,-30 330,-30 330,-10 310,-10"/>
<text text-anchor="start" x="333.67" y="-15.4" font-family="Times-12" font-size="14.00"> &#160;Providers</text>
<polygon fill="#fb8072" stroke="transparent" points="406,-10 406,-30 426,-30 426,-10 406,-10"/>
<text text-anchor="start" x="429.73" y="-15.4" font-family="Times-12" font-size="14.00"> &#160;Exports</text>
<g id="clust1" class="cluster">
<title>cluster_TestModule</title>
<polygon fill="none" stroke="black" stroke-dasharray="1,5" points="127.5,-70 127.5,-268 368.5,-268 368.5,-70 127.5,-70"/>
</g>
<g id="clust6" class="cluster">
<title>cluster_TestModule_providers</title>
<polygon fill="none" stroke="black" points="224.5,-78 224.5,-130 356.5,-130 356.5,-78 224.5,-78"/>
</g>
<g id="clust3" class="cluster">
<title>cluster_TestModule_imports</title>
<polygon fill="none" stroke="black" points="138.5,-78 138.5,-130 216.5,-130 216.5,-78 138.5,-78"/>
</g>
<g id="clust4" class="cluster">
<title>cluster_TestModule_exports</title>
<polygon fill="none" stroke="black" points="135.5,-208 135.5,-260 360.5,-260 360.5,-208 135.5,-208"/>
</g>
<!-- loadEnv -->
<g id="node1" class="node">
<title>loadEnv</title>
<polygon fill="#8dd3c7" stroke="black" points="208.66,-122 205.66,-126 184.66,-126 181.66,-122 146.34,-122 146.34,-86 208.66,-86 208.66,-122"/>
<text text-anchor="middle" x="177.5" y="-99.8" font-family="Times,serif" font-size="14.00">loadEnv</text>
</g>
<!-- TestModule -->
<g id="node2" class="node">
<title>TestModule</title>
<polygon fill="#8dd3c7" stroke="black" points="283.15,-187 280.15,-191 259.15,-191 256.15,-187 199.85,-187 199.85,-151 283.15,-151 283.15,-187"/>
<text text-anchor="middle" x="241.5" y="-164.8" font-family="Times,serif" font-size="14.00">TestModule</text>
</g>
<!-- loadEnv&#45;&gt;TestModule -->
<g id="edge1" class="edge">
<title>loadEnv&#45;&gt;TestModule</title>
<path fill="none" stroke="black" d="M204.25,-122.11C204.25,-122.11 204.25,-140.99 204.25,-140.99"/>
<polygon fill="black" stroke="black" points="200.75,-140.99 204.25,-150.99 207.75,-140.99 200.75,-140.99"/>
</g>
<!-- AWSService  -->
<g id="node3" class="node">
<title>AWSService </title>
<polygon fill="#fb8072" stroke="black" points="352.58,-252 260.42,-252 260.42,-216 352.58,-216 352.58,-252"/>
<text text-anchor="middle" x="306.5" y="-229.8" font-family="Times,serif" font-size="14.00">AWSService </text>
</g>
<!-- TestModule&#45;&gt;AWSService  -->
<g id="edge2" class="edge">
<title>TestModule&#45;&gt;AWSService </title>
<path fill="none" stroke="black" stroke-dasharray="5,2" d="M271.77,-187.11C271.77,-187.11 271.77,-205.99 271.77,-205.99"/>
<polygon fill="black" stroke="black" points="268.27,-205.99 271.77,-215.99 275.27,-205.99 268.27,-205.99"/>
</g>
<!-- MailerService  -->
<g id="node4" class="node">
<title>MailerService </title>
<polygon fill="#fb8072" stroke="black" points="241.79,-252 143.21,-252 143.21,-216 241.79,-216 241.79,-252"/>
<text text-anchor="middle" x="192.5" y="-229.8" font-family="Times,serif" font-size="14.00">MailerService </text>
</g>
<!-- TestModule&#45;&gt;MailerService  -->
<g id="edge3" class="edge">
<title>TestModule&#45;&gt;MailerService </title>
<path fill="none" stroke="black" stroke-dasharray="5,2" d="M220.79,-187.11C220.79,-187.11 220.79,-205.99 220.79,-205.99"/>
<polygon fill="black" stroke="black" points="217.29,-205.99 220.79,-215.99 224.29,-205.99 217.29,-205.99"/>
</g>
<!-- SignService -->
<g id="node5" class="node">
<title>SignService</title>
<ellipse fill="#fdb462" stroke="black" cx="290.5" cy="-104" rx="57.9" ry="18"/>
<text text-anchor="middle" x="290.5" y="-99.8" font-family="Times,serif" font-size="14.00">SignService</text>
</g>
<!-- SignService&#45;&gt;TestModule -->
<g id="edge4" class="edge">
<title>SignService&#45;&gt;TestModule</title>
<path fill="none" stroke="black" d="M258.06,-119.08C258.06,-119.08 258.06,-140.76 258.06,-140.76"/>
<polygon fill="black" stroke="black" points="254.56,-140.76 258.06,-150.76 261.56,-140.76 254.56,-140.76"/>
</g>
</g>
</svg>
