<?xml version="1.0" encoding="UTF-8" standalone="no"?>
<!DOCTYPE svg PUBLIC "-//W3C//DTD SVG 1.1//EN"
 "http://www.w3.org/Graphics/SVG/1.1/DTD/svg11.dtd">
<!-- Generated by graphviz version 2.47.0 (20210316.0004)
 -->
<!-- Title: dependencies Pages: 1 -->
<svg width="504pt" height="284pt"
 viewBox="0.00 0.00 504.00 284.00" xmlns="http://www.w3.org/2000/svg" xmlns:xlink="http://www.w3.org/1999/xlink">
<g id="graph0" class="graph" transform="scale(1 1) rotate(0) translate(4 280)">
<title>dependencies</title>
<polygon fill="white" stroke="transparent" points="-4,4 -4,-280 500,-280 500,4 -4,4"/>
<text text-anchor="start" x="227.01" y="-42.4" font-family="Times-12" font-weight="bold" font-size="14.00">Legend</text>
<polygon fill="#ffffb3" stroke="transparent" points="14,-10 14,-30 34,-30 34,-10 14,-10"/>
<text text-anchor="start" x="37.63" y="-15.4" font-family="Times-12" font-size="14.00"> &#160;Declarations</text>
<polygon fill="#8dd3c7" stroke="transparent" points="127,-10 127,-30 147,-30 147,-10 127,-10"/>
<text text-anchor="start" x="150.73" y="-15.4" font-family="Times-12" font-size="14.00"> &#160;Module</text>
<polygon fill="#80b1d3" stroke="transparent" points="213,-10 213,-30 233,-30 233,-10 213,-10"/>
<text text-anchor="start" x="236.78" y="-15.4" font-family="Times-12" font-size="14.00"> &#160;Bootstrap</text>
<polygon fill="#fdb462" stroke="transparent" points="310,-10 310,-30 330,-30 330,-10 310,-10"/>
<text text-anchor="start" x="333.67" y="-15.4" font-family="Times-12" font-size="14.00"> &#160;Providers</text>
<polygon fill="#fb8072" stroke="transparent" points="406,-10 406,-30 426,-30 426,-10 406,-10"/>
<text text-anchor="start" x="429.73" y="-15.4" font-family="Times-12" font-size="14.00"> &#160;Exports</text>
<g id="clust1" class="cluster">
<title>cluster_TestModule</title>
<polygon fill="none" stroke="black" stroke-dasharray="1,5" points="131,-70 131,-268 365,-268 365,-70 131,-70"/>
</g>
<g id="clust6" class="cluster">
<title>cluster_TestModule_providers</title>
<polygon fill="none" stroke="black" points="225,-78 225,-130 357,-130 357,-78 225,-78"/>
</g>
<g id="clust3" class="cluster">
<title>cluster_TestModule_imports</title>
<polygon fill="none" stroke="black" points="139,-78 139,-130 217,-130 217,-78 139,-78"/>
</g>
<g id="clust4" class="cluster">
<title>cluster_TestModule_exports</title>
<polygon fill="none" stroke="black" points="186,-208 186,-260 300,-260 300,-208 186,-208"/>
</g>
<!-- loadEnv -->
<g id="node1" class="node">
<title>loadEnv</title>
<polygon fill="#8dd3c7" stroke="black" points="209.16,-122 206.16,-126 185.16,-126 182.16,-122 146.84,-122 146.84,-86 209.16,-86 209.16,-122"/>
<text text-anchor="middle" x="178" y="-99.8" font-family="Times,serif" font-size="14.00">loadEnv</text>
</g>
<!-- TestModule -->
<g id="node2" class="node">
<title>TestModule</title>
<polygon fill="#8dd3c7" stroke="black" points="284.65,-187 281.65,-191 260.65,-191 257.65,-187 201.35,-187 201.35,-151 284.65,-151 284.65,-187"/>
<text text-anchor="middle" x="243" y="-164.8" font-family="Times,serif" font-size="14.00">TestModule</text>
</g>
<!-- loadEnv&#45;&gt;TestModule -->
<g id="edge1" class="edge">
<title>loadEnv&#45;&gt;TestModule</title>
<path fill="none" stroke="black" d="M205.25,-122.11C205.25,-122.11 205.25,-140.99 205.25,-140.99"/>
<polygon fill="black" stroke="black" points="201.75,-140.99 205.25,-150.99 208.75,-140.99 201.75,-140.99"/>
</g>
<!-- MailerService  -->
<g id="node3" class="node">
<title>MailerService </title>
<polygon fill="#fb8072" stroke="black" points="292.29,-252 193.71,-252 193.71,-216 292.29,-216 292.29,-252"/>
<text text-anchor="middle" x="243" y="-229.8" font-family="Times,serif" font-size="14.00">MailerService </text>
</g>
<!-- TestModule&#45;&gt;MailerService  -->
<g id="edge2" class="edge">
<title>TestModule&#45;&gt;MailerService </title>
<path fill="none" stroke="black" stroke-dasharray="5,2" d="M243,-187.11C243,-187.11 243,-205.99 243,-205.99"/>
<polygon fill="black" stroke="black" points="239.5,-205.99 243,-215.99 246.5,-205.99 239.5,-205.99"/>
</g>
<!-- SignService -->
<g id="node4" class="node">
<title>SignService</title>
<ellipse fill="#fdb462" stroke="black" cx="291" cy="-104" rx="57.9" ry="18"/>
<text text-anchor="middle" x="291" y="-99.8" font-family="Times,serif" font-size="14.00">SignService</text>
</g>
<!-- SignService&#45;&gt;TestModule -->
<g id="edge3" class="edge">
<title>SignService&#45;&gt;TestModule</title>
<path fill="none" stroke="black" d="M259.06,-119.08C259.06,-119.08 259.06,-140.76 259.06,-140.76"/>
<polygon fill="black" stroke="black" points="255.56,-140.76 259.06,-150.76 262.56,-140.76 255.56,-140.76"/>
</g>
</g>
</svg>
